<?xml version="1.0" encoding="utf-8" standalone="no"?>
<!DOCTYPE svg PUBLIC "-//W3C//DTD SVG 1.1//EN"
  "http://www.w3.org/Graphics/SVG/1.1/DTD/svg11.dtd">
<svg xmlns:xlink="http://www.w3.org/1999/xlink" width="795.6pt" height="568.8pt" viewBox="0 0 795.6 568.8" xmlns="http://www.w3.org/2000/svg" version="1.1">
 <metadata>
  <rdf:RDF xmlns:dc="http://purl.org/dc/elements/1.1/" xmlns:cc="http://creativecommons.org/ns#" xmlns:rdf="http://www.w3.org/1999/02/22-rdf-syntax-ns#">
   <cc:Work>
    <dc:type rdf:resource="http://purl.org/dc/dcmitype/StillImage"/>
    <dc:date>2026-02-05T16:54:31.078210</dc:date>
    <dc:format>image/svg+xml</dc:format>
    <dc:creator>
     <cc:Agent>
      <dc:title>Matplotlib v3.10.3, https://matplotlib.org/</dc:title>
     </cc:Agent>
    </dc:creator>
   </cc:Work>
  </rdf:RDF>
 </metadata>
 <defs>
  <style type="text/css">*{stroke-linejoin: round; stroke-linecap: butt}</style>
 </defs>
 <g id="figure_1">
  <g id="patch_1">
   <path d="M 0 568.8 
L 795.6 568.8 
L 795.6 0 
L 0 0 
z
" style="fill: #ffffff"/>
  </g>
  <g id="axes_1">
   <g id="patch_2">
    <path d="M 397.8 381.42 
C 471.791665 381.42 542.762784 371.197361 595.082792 353.0035 
C 647.4028 334.809639 676.8 310.130005 676.8 284.4 
C 676.8 258.669995 647.4028 233.990361 595.082792 215.7965 
C 542.762784 197.602639 471.791665 187.38 397.8 187.38 
C 323.808335 187.38 252.837216 197.602639 200.517208 215.7965 
C 148.1972 233.990361 118.8 258.669995 118.8 284.4 
C 118.8 310.130005 148.1972 334.809639 200.517208 353.0035 
C 252.837216 371.197361 323.808335 381.42 397.8 381.42 
L 397.8 381.42 
z
" clip-path="url(#pda88ed382e)" style="fill: none; opacity: 0.5; stroke-dasharray: 7.4,3.2; stroke-dashoffset: 0; stroke: #e94560; stroke-width: 2; stroke-linejoin: miter"/>
   </g>
   <g id="line2d_1">
    <path d="M 118.8 284.4 
L 124.493878 283.291662 
L 130.187755 282.229504 
L 135.881633 281.213528 
L 141.57551 280.243732 
L 147.269388 279.320117 
L 152.963265 278.442682 
L 158.657143 277.611429 
L 164.35102 276.826356 
L 170.044898 276.087464 
L 175.738776 275.394752 
L 181.432653 274.748222 
L 187.126531 274.147872 
L 192.820408 273.593703 
L 198.514286 273.085714 
L 204.208163 272.623907 
L 209.902041 272.20828 
L 215.595918 271.838834 
L 221.289796 271.515569 
L 226.983673 271.238484 
L 232.677551 271.00758 
L 238.371429 270.822857 
L 244.065306 270.684315 
L 249.759184 270.591953 
L 255.453061 270.545773 
L 261.146939 270.545773 
L 266.840816 270.591953 
L 272.534694 270.684315 
L 278.228571 270.822857 
L 283.922449 271.00758 
L 289.616327 271.238484 
L 295.310204 271.515569 
L 301.004082 271.838834 
L 306.697959 272.20828 
L 312.391837 272.623907 
L 318.085714 273.085714 
L 323.779592 273.593703 
L 329.473469 274.147872 
L 335.167347 274.748222 
L 340.861224 275.394752 
L 346.555102 276.087464 
L 352.24898 276.826356 
L 357.942857 277.611429 
L 363.636735 278.442682 
L 369.330612 279.320117 
L 375.02449 280.243732 
L 380.718367 281.213528 
L 386.412245 282.229504 
L 392.106122 283.291662 
L 397.8 284.4 
" clip-path="url(#pda88ed382e)" style="fill: none; stroke: #8b4513; stroke-opacity: 0.6; stroke-width: 2; stroke-linecap: square"/>
   </g>
   <g id="line2d_2">
    <path d="M 397.8 284.4 
L 403.493878 283.291662 
L 409.187755 282.229504 
L 414.881633 281.213528 
L 420.57551 280.243732 
L 426.269388 279.320117 
L 431.963265 278.442682 
L 437.657143 277.611429 
L 443.35102 276.826356 
L 449.044898 276.087464 
L 454.738776 275.394752 
L 460.432653 274.748222 
L 466.126531 274.147872 
L 471.820408 273.593703 
L 477.514286 273.085714 
L 483.208163 272.623907 
L 488.902041 272.20828 
L 494.595918 271.838834 
L 500.289796 271.515569 
L 505.983673 271.238484 
L 511.677551 271.00758 
L 517.371429 270.822857 
L 523.065306 270.684315 
L 528.759184 270.591953 
L 534.453061 270.545773 
L 540.146939 270.545773 
L 545.840816 270.591953 
L 551.534694 270.684315 
L 557.228571 270.822857 
L 562.922449 271.00758 
L 568.616327 271.238484 
L 574.310204 271.515569 
L 580.004082 271.838834 
L 585.697959 272.20828 
L 591.391837 272.623907 
L 597.085714 273.085714 
L 602.779592 273.593703 
L 608.473469 274.147872 
L 614.167347 274.748222 
L 619.861224 275.394752 
L 625.555102 276.087464 
L 631.24898 276.826356 
L 636.942857 277.611429 
L 642.636735 278.442682 
L 648.330612 279.320117 
L 654.02449 280.243732 
L 659.718367 281.213528 
L 665.412245 282.229504 
L 671.106122 283.291662 
L 676.8 284.4 
" clip-path="url(#pda88ed382e)" style="fill: none; stroke: #2c3e50; stroke-opacity: 0.6; stroke-width: 2; stroke-linecap: square"/>
   </g>
   <g id="line2d_3">
    <path d="M 118.8 284.4 
L 130.187755 283.291662 
L 141.57551 282.229504 
L 152.963265 281.213528 
L 164.35102 280.243732 
L 175.738776 279.320117 
L 187.126531 278.442682 
L 198.514286 277.611429 
L 209.902041 276.826356 
L 221.289796 276.087464 
L 232.677551 275.394752 
L 244.065306 274.748222 
L 255.453061 274.147872 
L 266.840816 273.593703 
L 278.228571 273.085714 
L 289.616327 272.623907 
L 301.004082 272.20828 
L 312.391837 271.838834 
L 323.779592 271.515569 
L 335.167347 271.238484 
L 346.555102 271.00758 
L 357.942857 270.822857 
L 369.330612 270.684315 
L 380.718367 270.591953 
L 392.106122 270.545773 
L 403.493878 270.545773 
L 414.881633 270.591953 
L 426.269388 270.684315 
L 437.657143 270.822857 
L 449.044898 271.00758 
L 460.432653 271.238484 
L 471.820408 271.515569 
L 483.208163 271.838834 
L 494.595918 272.20828 
L 505.983673 272.623907 
L 517.371429 273.085714 
L 528.759184 273.593703 
L 540.146939 274.147872 
L 551.534694 274.748222 
L 562.922449 275.394752 
L 574.310204 276.087464 
L 585.697959 276.826356 
L 597.085714 277.611429 
L 608.473469 278.442682 
L 619.861224 279.320117 
L 631.24898 280.243732 
L 642.636735 281.213528 
L 654.02449 282.229504 
L 665.412245 283.291662 
L 676.8 284.4 
" clip-path="url(#pda88ed382e)" style="fill: none; stroke: #533483; stroke-opacity: 0.6; stroke-width: 1.5; stroke-linecap: square"/>
   </g>
   <g id="line2d_4">
    <path d="M 565.2 173.52 
L 567.477551 174.674519 
L 569.755102 175.875219 
L 572.032653 177.122099 
L 574.310204 178.41516 
L 576.587755 179.754402 
L 578.865306 181.139825 
L 581.142857 182.571429 
L 583.420408 184.049213 
L 585.697959 185.573178 
L 587.97551 187.143324 
L 590.253061 188.75965 
L 592.530612 190.422157 
L 594.808163 192.130845 
L 597.085714 193.885714 
L 599.363265 195.686764 
L 601.640816 197.533994 
L 603.918367 199.427405 
L 606.195918 201.366997 
L 608.473469 203.35277 
L 610.75102 205.384723 
L 613.028571 207.462857 
L 615.306122 209.587172 
L 617.583673 211.757668 
L 619.861224 213.974344 
L 622.138776 216.237201 
L 624.416327 218.546239 
L 626.693878 220.901458 
L 628.971429 223.302857 
L 631.24898 225.750437 
L 633.526531 228.244198 
L 635.804082 230.78414 
L 638.081633 233.370262 
L 640.359184 236.002566 
L 642.636735 238.68105 
L 644.914286 241.405714 
L 647.191837 244.17656 
L 649.469388 246.993586 
L 651.746939 249.856793 
L 654.02449 252.766181 
L 656.302041 255.721749 
L 658.579592 258.723499 
L 660.857143 261.771429 
L 663.134694 264.865539 
L 665.412245 268.005831 
L 667.689796 271.192303 
L 669.967347 274.424956 
L 672.244898 277.70379 
L 674.522449 281.028805 
L 676.8 284.4 
" clip-path="url(#pda88ed382e)" style="fill: none; stroke: #e94560; stroke-opacity: 0.6; stroke-linecap: square"/>
   </g>
   <g id="line2d_5">
    <path d="M 676.8 284.4 
L 675.661224 285.554519 
L 674.522449 286.755219 
L 673.383673 288.002099 
L 672.244898 289.29516 
L 671.106122 290.634402 
L 669.967347 292.019825 
L 668.828571 293.451429 
L 667.689796 294.929213 
L 666.55102 296.453178 
L 665.412245 298.023324 
L 664.273469 299.63965 
L 663.134694 301.302157 
L 661.995918 303.010845 
L 660.857143 304.765714 
L 659.718367 306.566764 
L 658.579592 308.413994 
L 657.440816 310.307405 
L 656.302041 312.246997 
L 655.163265 314.23277 
L 654.02449 316.264723 
L 652.885714 318.342857 
L 651.746939 320.467172 
L 650.608163 322.637668 
L 649.469388 324.854344 
L 648.330612 327.117201 
L 647.191837 329.426239 
L 646.053061 331.781458 
L 644.914286 334.182857 
L 643.77551 336.630437 
L 642.636735 339.124198 
L 641.497959 341.66414 
L 640.359184 344.250262 
L 639.220408 346.882566 
L 638.081633 349.56105 
L 636.942857 352.285714 
L 635.804082 355.05656 
L 634.665306 357.873586 
L 633.526531 360.736793 
L 632.387755 363.646181 
L 631.24898 366.601749 
L 630.110204 369.603499 
L 628.971429 372.651429 
L 627.832653 375.745539 
L 626.693878 378.885831 
L 625.555102 382.072303 
L 624.416327 385.304956 
L 623.277551 388.58379 
L 622.138776 391.908805 
L 621 395.28 
" clip-path="url(#pda88ed382e)" style="fill: none; stroke: #0f3460; stroke-opacity: 0.6; stroke-width: 2; stroke-linecap: square"/>
   </g>
   <g id="line2d_6">
    <path d="M 397.8 284.4 
L 401.216327 281.028805 
L 404.632653 277.70379 
L 408.04898 274.424956 
L 411.465306 271.192303 
L 414.881633 268.005831 
L 418.297959 264.865539 
L 421.714286 261.771429 
L 425.130612 258.723499 
L 428.546939 255.721749 
L 431.963265 252.766181 
L 435.379592 249.856793 
L 438.795918 246.993586 
L 442.212245 244.17656 
L 445.628571 241.405714 
L 449.044898 238.68105 
L 452.461224 236.002566 
L 455.877551 233.370262 
L 459.293878 230.78414 
L 462.710204 228.244198 
L 466.126531 225.750437 
L 469.542857 223.302857 
L 472.959184 220.901458 
L 476.37551 218.546239 
L 479.791837 216.237201 
L 483.208163 213.974344 
L 486.62449 211.757668 
L 490.040816 209.587172 
L 493.457143 207.462857 
L 496.873469 205.384723 
L 500.289796 203.35277 
L 503.706122 201.366997 
L 507.122449 199.427405 
L 510.538776 197.533994 
L 513.955102 195.686764 
L 517.371429 193.885714 
L 520.787755 192.130845 
L 524.204082 190.422157 
L 527.620408 188.75965 
L 531.036735 187.143324 
L 534.453061 185.573178 
L 537.869388 184.049213 
L 541.285714 182.571429 
L 544.702041 181.139825 
L 548.118367 179.754402 
L 551.534694 178.41516 
L 554.95102 177.122099 
L 558.367347 175.875219 
L 561.783673 174.674519 
L 565.2 173.52 
" clip-path="url(#pda88ed382e)" style="fill: none; stroke: #95a5a6; stroke-opacity: 0.6; stroke-width: 0.8; stroke-linecap: square"/>
   </g>
   <g id="line2d_7">
    <path d="M 118.8 284.4 
L 127.910204 281.028805 
L 137.020408 277.70379 
L 146.130612 274.424956 
L 155.240816 271.192303 
L 164.35102 268.005831 
L 173.461224 264.865539 
L 182.571429 261.771429 
L 191.681633 258.723499 
L 200.791837 255.721749 
L 209.902041 252.766181 
L 219.012245 249.856793 
L 228.122449 246.993586 
L 237.232653 244.17656 
L 246.342857 241.405714 
L 255.453061 238.68105 
L 264.563265 236.002566 
L 273.673469 233.370262 
L 282.783673 230.78414 
L 291.893878 228.244198 
L 301.004082 225.750437 
L 310.114286 223.302857 
L 319.22449 220.901458 
L 328.334694 218.546239 
L 337.444898 216.237201 
L 346.555102 213.974344 
L 355.665306 211.757668 
L 364.77551 209.587172 
L 373.885714 207.462857 
L 382.995918 205.384723 
L 392.106122 203.35277 
L 401.216327 201.366997 
L 410.326531 199.427405 
L 419.436735 197.533994 
L 428.546939 195.686764 
L 437.657143 193.885714 
L 446.767347 192.130845 
L 455.877551 190.422157 
L 464.987755 188.75965 
L 474.097959 187.143324 
L 483.208163 185.573178 
L 492.318367 184.049213 
L 501.428571 182.571429 
L 510.538776 181.139825 
L 519.64898 179.754402 
L 528.759184 178.41516 
L 537.869388 177.122099 
L 546.979592 175.875219 
L 556.089796 174.674519 
L 565.2 173.52 
" clip-path="url(#pda88ed382e)" style="fill: none; stroke: #d35400; stroke-opacity: 0.6; stroke-width: 0.8; stroke-linecap: square"/>
   </g>
   <g id="line2d_8">
    <path d="M 35.1 478.44 
L 90.9 478.44 
" clip-path="url(#pda88ed382e)" style="fill: none; stroke: #8b4513; stroke-width: 2; stroke-linecap: square"/>
   </g>
   <g id="line2d_9">
    <path d="M 35.1 500.616 
L 90.9 500.616 
" clip-path="url(#pda88ed382e)" style="fill: none; stroke: #2c3e50; stroke-width: 2; stroke-linecap: square"/>
   </g>
   <g id="line2d_10">
    <path d="M 35.1 522.792 
L 90.9 522.792 
" clip-path="url(#pda88ed382e)" style="fill: none; stroke: #533483; stroke-width: 2; stroke-linecap: square"/>
   </g>
   <g id="line2d_11">
    <path d="M 35.1 544.968 
L 90.9 544.968 
" clip-path="url(#pda88ed382e)" style="fill: none; stroke: #e94560; stroke-width: 2; stroke-linecap: square"/>
   </g>
   <g id="text_1">
    <!-- TÍMAVAFN : LE TISSAGE TEMPOREL -->
    <g style="fill: #1a1a2e" transform="translate(221.13 39.886875) scale(0.18 -0.18)">
     <defs>
      <path id="DejaVuSans-Bold-54" d="M 31 4666 
L 4331 4666 
L 4331 3756 
L 2784 3756 
L 2784 0 
L 1581 0 
L 1581 3756 
L 31 3756 
L 31 4666 
z
" transform="scale(0.015625)"/>
      <path id="DejaVuSans-Bold-cd" d="M 588 4666 
L 1791 4666 
L 1791 0 
L 588 0 
L 588 4666 
z
M 1271 5921 
L 2156 5921 
L 1265 5096 
L 653 5096 
L 1271 5921 
z
" transform="scale(0.015625)"/>
      <path id="DejaVuSans-Bold-4d" d="M 588 4666 
L 2119 4666 
L 3181 2169 
L 4250 4666 
L 5778 4666 
L 5778 0 
L 4641 0 
L 4641 3413 
L 3566 897 
L 2803 897 
L 1728 3413 
L 1728 0 
L 588 0 
L 588 4666 
z
" transform="scale(0.015625)"/>
      <path id="DejaVuSans-Bold-41" d="M 3419 850 
L 1538 850 
L 1241 0 
L 31 0 
L 1759 4666 
L 3194 4666 
L 4922 0 
L 3713 0 
L 3419 850 
z
M 1838 1716 
L 3116 1716 
L 2478 3572 
L 1838 1716 
z
" transform="scale(0.015625)"/>
      <path id="DejaVuSans-Bold-56" d="M 31 4666 
L 1241 4666 
L 2478 1222 
L 3713 4666 
L 4922 4666 
L 3194 0 
L 1759 0 
L 31 4666 
z
" transform="scale(0.015625)"/>
      <path id="DejaVuSans-Bold-46" d="M 588 4666 
L 3834 4666 
L 3834 3756 
L 1791 3756 
L 1791 2888 
L 3713 2888 
L 3713 1978 
L 1791 1978 
L 1791 0 
L 588 0 
L 588 4666 
z
" transform="scale(0.015625)"/>
      <path id="DejaVuSans-Bold-4e" d="M 588 4666 
L 1931 4666 
L 3628 1466 
L 3628 4666 
L 4769 4666 
L 4769 0 
L 3425 0 
L 1728 3200 
L 1728 0 
L 588 0 
L 588 4666 
z
" transform="scale(0.015625)"/>
      <path id="DejaVuSans-Bold-20" transform="scale(0.015625)"/>
      <path id="DejaVuSans-Bold-3a" d="M 716 3500 
L 1844 3500 
L 1844 2291 
L 716 2291 
L 716 3500 
z
M 716 1209 
L 1844 1209 
L 1844 0 
L 716 0 
L 716 1209 
z
" transform="scale(0.015625)"/>
      <path id="DejaVuSans-Bold-4c" d="M 588 4666 
L 1791 4666 
L 1791 909 
L 3903 909 
L 3903 0 
L 588 0 
L 588 4666 
z
" transform="scale(0.015625)"/>
      <path id="DejaVuSans-Bold-45" d="M 588 4666 
L 3834 4666 
L 3834 3756 
L 1791 3756 
L 1791 2888 
L 3713 2888 
L 3713 1978 
L 1791 1978 
L 1791 909 
L 3903 909 
L 3903 0 
L 588 0 
L 588 4666 
z
" transform="scale(0.015625)"/>
      <path id="DejaVuSans-Bold-49" d="M 588 4666 
L 1791 4666 
L 1791 0 
L 588 0 
L 588 4666 
z
" transform="scale(0.015625)"/>
      <path id="DejaVuSans-Bold-53" d="M 3834 4519 
L 3834 3531 
Q 3450 3703 3084 3790 
Q 2719 3878 2394 3878 
Q 1963 3878 1756 3759 
Q 1550 3641 1550 3391 
Q 1550 3203 1689 3098 
Q 1828 2994 2194 2919 
L 2706 2816 
Q 3484 2659 3812 2340 
Q 4141 2022 4141 1434 
Q 4141 663 3683 286 
Q 3225 -91 2284 -91 
Q 1841 -91 1394 -6 
Q 947 78 500 244 
L 500 1259 
Q 947 1022 1364 901 
Q 1781 781 2169 781 
Q 2563 781 2772 912 
Q 2981 1044 2981 1288 
Q 2981 1506 2839 1625 
Q 2697 1744 2272 1838 
L 1806 1941 
Q 1106 2091 782 2419 
Q 459 2747 459 3303 
Q 459 4000 909 4375 
Q 1359 4750 2203 4750 
Q 2588 4750 2994 4692 
Q 3400 4634 3834 4519 
z
" transform="scale(0.015625)"/>
      <path id="DejaVuSans-Bold-47" d="M 4781 347 
Q 4331 128 3847 18 
Q 3363 -91 2847 -91 
Q 1681 -91 1000 561 
Q 319 1213 319 2328 
Q 319 3456 1012 4103 
Q 1706 4750 2913 4750 
Q 3378 4750 3804 4662 
Q 4231 4575 4609 4403 
L 4609 3438 
Q 4219 3659 3833 3768 
Q 3447 3878 3059 3878 
Q 2341 3878 1952 3476 
Q 1563 3075 1563 2328 
Q 1563 1588 1938 1184 
Q 2313 781 3003 781 
Q 3191 781 3352 804 
Q 3513 828 3641 878 
L 3641 1784 
L 2906 1784 
L 2906 2591 
L 4781 2591 
L 4781 347 
z
" transform="scale(0.015625)"/>
      <path id="DejaVuSans-Bold-50" d="M 588 4666 
L 2584 4666 
Q 3475 4666 3951 4270 
Q 4428 3875 4428 3144 
Q 4428 2409 3951 2014 
Q 3475 1619 2584 1619 
L 1791 1619 
L 1791 0 
L 588 0 
L 588 4666 
z
M 1791 3794 
L 1791 2491 
L 2456 2491 
Q 2806 2491 2997 2661 
Q 3188 2831 3188 3144 
Q 3188 3456 2997 3625 
Q 2806 3794 2456 3794 
L 1791 3794 
z
" transform="scale(0.015625)"/>
      <path id="DejaVuSans-Bold-4f" d="M 2719 3878 
Q 2169 3878 1866 3472 
Q 1563 3066 1563 2328 
Q 1563 1594 1866 1187 
Q 2169 781 2719 781 
Q 3272 781 3575 1187 
Q 3878 1594 3878 2328 
Q 3878 3066 3575 3472 
Q 3272 3878 2719 3878 
z
M 2719 4750 
Q 3844 4750 4481 4106 
Q 5119 3463 5119 2328 
Q 5119 1197 4481 553 
Q 3844 -91 2719 -91 
Q 1597 -91 958 553 
Q 319 1197 319 2328 
Q 319 3463 958 4106 
Q 1597 4750 2719 4750 
z
" transform="scale(0.015625)"/>
      <path id="DejaVuSans-Bold-52" d="M 2297 2597 
Q 2675 2597 2839 2737 
Q 3003 2878 3003 3200 
Q 3003 3519 2839 3656 
Q 2675 3794 2297 3794 
L 1791 3794 
L 1791 2597 
L 2297 2597 
z
M 1791 1766 
L 1791 0 
L 588 0 
L 588 4666 
L 2425 4666 
Q 3347 4666 3776 4356 
Q 4206 4047 4206 3378 
Q 4206 2916 3982 2619 
Q 3759 2322 3309 2181 
Q 3556 2125 3751 1926 
Q 3947 1728 4147 1325 
L 4800 0 
L 3519 0 
L 2950 1159 
Q 2778 1509 2601 1637 
Q 2425 1766 2131 1766 
L 1791 1766 
z
" transform="scale(0.015625)"/>
     </defs>
     <use xlink:href="#DejaVuSans-Bold-54"/>
     <use xlink:href="#DejaVuSans-Bold-cd" transform="translate(68.212891 0)"/>
     <use xlink:href="#DejaVuSans-Bold-4d" transform="translate(105.419922 0)"/>
     <use xlink:href="#DejaVuSans-Bold-41" transform="translate(204.931641 0)"/>
     <use xlink:href="#DejaVuSans-Bold-56" transform="translate(275.574219 0)"/>
     <use xlink:href="#DejaVuSans-Bold-41" transform="translate(346.216797 0)"/>
     <use xlink:href="#DejaVuSans-Bold-46" transform="translate(423.609375 0)"/>
     <use xlink:href="#DejaVuSans-Bold-4e" transform="translate(491.919922 0)"/>
     <use xlink:href="#DejaVuSans-Bold-20" transform="translate(575.611328 0)"/>
     <use xlink:href="#DejaVuSans-Bold-3a" transform="translate(610.425781 0)"/>
     <use xlink:href="#DejaVuSans-Bold-20" transform="translate(650.416016 0)"/>
     <use xlink:href="#DejaVuSans-Bold-4c" transform="translate(685.230469 0)"/>
     <use xlink:href="#DejaVuSans-Bold-45" transform="translate(748.951172 0)"/>
     <use xlink:href="#DejaVuSans-Bold-20" transform="translate(817.261719 0)"/>
     <use xlink:href="#DejaVuSans-Bold-54" transform="translate(852.076172 0)"/>
     <use xlink:href="#DejaVuSans-Bold-49" transform="translate(920.289062 0)"/>
     <use xlink:href="#DejaVuSans-Bold-53" transform="translate(957.496094 0)"/>
     <use xlink:href="#DejaVuSans-Bold-53" transform="translate(1025.017578 0)"/>
     <use xlink:href="#DejaVuSans-Bold-41" transform="translate(1097.039062 0)"/>
     <use xlink:href="#DejaVuSans-Bold-47" transform="translate(1174.431641 0)"/>
     <use xlink:href="#DejaVuSans-Bold-45" transform="translate(1256.511719 0)"/>
     <use xlink:href="#DejaVuSans-Bold-20" transform="translate(1324.822266 0)"/>
     <use xlink:href="#DejaVuSans-Bold-54" transform="translate(1359.636719 0)"/>
     <use xlink:href="#DejaVuSans-Bold-45" transform="translate(1427.849609 0)"/>
     <use xlink:href="#DejaVuSans-Bold-4d" transform="translate(1496.160156 0)"/>
     <use xlink:href="#DejaVuSans-Bold-50" transform="translate(1595.671875 0)"/>
     <use xlink:href="#DejaVuSans-Bold-4f" transform="translate(1668.962891 0)"/>
     <use xlink:href="#DejaVuSans-Bold-52" transform="translate(1753.972656 0)"/>
     <use xlink:href="#DejaVuSans-Bold-45" transform="translate(1830.974609 0)"/>
     <use xlink:href="#DejaVuSans-Bold-4c" transform="translate(1899.285156 0)"/>
    </g>
   </g>
   <g id="text_2">
    <!-- Fractalité historique et Garbage Collection -->
    <g style="fill: #533483" transform="translate(270.315 66.19125) scale(0.12 -0.12)">
     <defs>
      <path id="DejaVuSans-Oblique-46" d="M 1081 4666 
L 3756 4666 
L 3653 4134 
L 1606 4134 
L 1338 2759 
L 3188 2759 
L 3084 2228 
L 1234 2228 
L 800 0 
L 172 0 
L 1081 4666 
z
" transform="scale(0.015625)"/>
      <path id="DejaVuSans-Oblique-72" d="M 2853 2969 
Q 2766 3016 2653 3041 
Q 2541 3066 2413 3066 
Q 1953 3066 1609 2717 
Q 1266 2369 1153 1784 
L 800 0 
L 225 0 
L 909 3500 
L 1484 3500 
L 1375 2956 
Q 1603 3259 1920 3421 
Q 2238 3584 2597 3584 
Q 2691 3584 2781 3573 
Q 2872 3563 2963 3538 
L 2853 2969 
z
" transform="scale(0.015625)"/>
      <path id="DejaVuSans-Oblique-61" d="M 3438 1997 
L 3047 0 
L 2472 0 
L 2578 531 
Q 2325 219 2001 64 
Q 1678 -91 1281 -91 
Q 834 -91 548 182 
Q 263 456 263 884 
Q 263 1497 752 1853 
Q 1241 2209 2100 2209 
L 2900 2209 
L 2931 2363 
Q 2938 2388 2941 2417 
Q 2944 2447 2944 2509 
Q 2944 2788 2717 2942 
Q 2491 3097 2081 3097 
Q 1800 3097 1504 3025 
Q 1209 2953 897 2809 
L 997 3341 
Q 1322 3463 1633 3523 
Q 1944 3584 2234 3584 
Q 2853 3584 3176 3315 
Q 3500 3047 3500 2534 
Q 3500 2431 3484 2292 
Q 3469 2153 3438 1997 
z
M 2816 1759 
L 2241 1759 
Q 1534 1759 1195 1570 
Q 856 1381 856 984 
Q 856 709 1029 553 
Q 1203 397 1509 397 
Q 1978 397 2328 733 
Q 2678 1069 2791 1631 
L 2816 1759 
z
" transform="scale(0.015625)"/>
      <path id="DejaVuSans-Oblique-63" d="M 3431 3366 
L 3316 2797 
Q 3109 2947 2876 3022 
Q 2644 3097 2394 3097 
Q 2119 3097 1870 3000 
Q 1622 2903 1453 2725 
Q 1184 2453 1037 2087 
Q 891 1722 891 1331 
Q 891 859 1127 628 
Q 1363 397 1844 397 
Q 2081 397 2348 469 
Q 2616 541 2906 684 
L 2797 116 
Q 2547 13 2283 -39 
Q 2019 -91 1741 -91 
Q 1044 -91 669 257 
Q 294 606 294 1253 
Q 294 1797 489 2255 
Q 684 2713 1069 3078 
Q 1331 3328 1684 3456 
Q 2038 3584 2456 3584 
Q 2700 3584 2940 3529 
Q 3181 3475 3431 3366 
z
" transform="scale(0.015625)"/>
      <path id="DejaVuSans-Oblique-74" d="M 2706 3500 
L 2619 3053 
L 1472 3053 
L 1100 1153 
Q 1081 1047 1072 975 
Q 1063 903 1063 863 
Q 1063 663 1183 572 
Q 1303 481 1569 481 
L 2150 481 
L 2053 0 
L 1503 0 
Q 991 0 739 200 
Q 488 400 488 806 
Q 488 878 497 964 
Q 506 1050 525 1153 
L 897 3053 
L 409 3053 
L 500 3500 
L 978 3500 
L 1172 4494 
L 1747 4494 
L 1556 3500 
L 2706 3500 
z
" transform="scale(0.015625)"/>
      <path id="DejaVuSans-Oblique-6c" d="M 1172 4863 
L 1747 4863 
L 800 0 
L 225 0 
L 1172 4863 
z
" transform="scale(0.015625)"/>
      <path id="DejaVuSans-Oblique-69" d="M 1172 4863 
L 1747 4863 
L 1606 4134 
L 1031 4134 
L 1172 4863 
z
M 909 3500 
L 1484 3500 
L 800 0 
L 225 0 
L 909 3500 
z
" transform="scale(0.015625)"/>
      <path id="DejaVuSans-Oblique-e9" d="M 3078 2063 
Q 3088 2113 3092 2166 
Q 3097 2219 3097 2272 
Q 3097 2653 2873 2875 
Q 2650 3097 2266 3097 
Q 1838 3097 1509 2826 
Q 1181 2556 1013 2059 
L 3078 2063 
z
M 3578 1613 
L 903 1613 
Q 884 1494 878 1425 
Q 872 1356 872 1306 
Q 872 872 1139 634 
Q 1406 397 1894 397 
Q 2269 397 2603 481 
Q 2938 566 3225 728 
L 3116 159 
Q 2806 34 2476 -28 
Q 2147 -91 1806 -91 
Q 1078 -91 686 257 
Q 294 606 294 1247 
Q 294 1794 489 2264 
Q 684 2734 1063 3103 
Q 1306 3334 1642 3459 
Q 1978 3584 2356 3584 
Q 2950 3584 3301 3228 
Q 3653 2872 3653 2272 
Q 3653 2128 3634 1964 
Q 3616 1800 3578 1613 
z
M 3063 5119 
L 3685 5119 
L 2438 3944 
L 1957 3944 
L 3063 5119 
z
" transform="scale(0.015625)"/>
      <path id="DejaVuSans-Oblique-20" transform="scale(0.015625)"/>
      <path id="DejaVuSans-Oblique-68" d="M 3566 2113 
L 3156 0 
L 2578 0 
L 2988 2091 
Q 3016 2238 3031 2350 
Q 3047 2463 3047 2528 
Q 3047 2791 2881 2937 
Q 2716 3084 2419 3084 
Q 1956 3084 1617 2771 
Q 1278 2459 1178 1941 
L 800 0 
L 225 0 
L 1172 4863 
L 1747 4863 
L 1375 2950 
Q 1594 3244 1934 3414 
Q 2275 3584 2650 3584 
Q 3113 3584 3367 3334 
Q 3622 3084 3622 2631 
Q 3622 2519 3608 2391 
Q 3594 2263 3566 2113 
z
" transform="scale(0.015625)"/>
      <path id="DejaVuSans-Oblique-73" d="M 3200 3397 
L 3091 2853 
Q 2863 2978 2609 3040 
Q 2356 3103 2088 3103 
Q 1634 3103 1373 2948 
Q 1113 2794 1113 2528 
Q 1113 2219 1719 2053 
Q 1766 2041 1788 2034 
L 1972 1978 
Q 2547 1819 2739 1644 
Q 2931 1469 2931 1166 
Q 2931 609 2489 259 
Q 2047 -91 1331 -91 
Q 1053 -91 747 -37 
Q 441 16 72 128 
L 184 722 
Q 500 559 806 475 
Q 1113 391 1394 391 
Q 1816 391 2080 572 
Q 2344 753 2344 1031 
Q 2344 1331 1650 1516 
L 1591 1531 
L 1394 1581 
Q 956 1697 753 1886 
Q 550 2075 550 2369 
Q 550 2928 970 3256 
Q 1391 3584 2113 3584 
Q 2397 3584 2667 3537 
Q 2938 3491 3200 3397 
z
" transform="scale(0.015625)"/>
      <path id="DejaVuSans-Oblique-6f" d="M 1625 -91 
Q 1009 -91 651 289 
Q 294 669 294 1325 
Q 294 1706 417 2101 
Q 541 2497 738 2766 
Q 1047 3184 1428 3384 
Q 1809 3584 2291 3584 
Q 2888 3584 3255 3212 
Q 3622 2841 3622 2241 
Q 3622 1825 3500 1412 
Q 3378 1000 3181 728 
Q 2875 309 2494 109 
Q 2113 -91 1625 -91 
z
M 891 1344 
Q 891 869 1089 633 
Q 1288 397 1691 397 
Q 2269 397 2648 901 
Q 3028 1406 3028 2181 
Q 3028 2634 2825 2865 
Q 2622 3097 2228 3097 
Q 1903 3097 1650 2945 
Q 1397 2794 1197 2484 
Q 1050 2253 970 1956 
Q 891 1659 891 1344 
z
" transform="scale(0.015625)"/>
      <path id="DejaVuSans-Oblique-71" d="M 2669 525 
Q 2438 222 2123 65 
Q 1809 -91 1428 -91 
Q 897 -91 595 267 
Q 294 625 294 1253 
Q 294 1759 480 2231 
Q 666 2703 1013 3078 
Q 1238 3322 1530 3453 
Q 1822 3584 2144 3584 
Q 2531 3584 2781 3431 
Q 3031 3278 3144 2969 
L 3244 3494 
L 3822 3494 
L 2888 -1319 
L 2309 -1319 
L 2669 525 
z
M 891 1338 
Q 891 875 1084 633 
Q 1278 391 1644 391 
Q 2188 391 2572 911 
Q 2956 1431 2956 2175 
Q 2956 2625 2757 2864 
Q 2559 3103 2188 3103 
Q 1916 3103 1684 2976 
Q 1453 2850 1281 2606 
Q 1100 2350 995 2006 
Q 891 1663 891 1338 
z
" transform="scale(0.015625)"/>
      <path id="DejaVuSans-Oblique-75" d="M 428 1388 
L 838 3500 
L 1416 3500 
L 1006 1409 
Q 975 1256 961 1147 
Q 947 1038 947 966 
Q 947 700 1109 554 
Q 1272 409 1569 409 
Q 2031 409 2368 721 
Q 2706 1034 2809 1563 
L 3194 3500 
L 3769 3500 
L 3091 0 
L 2516 0 
L 2631 550 
Q 2388 244 2052 76 
Q 1716 -91 1338 -91 
Q 878 -91 622 161 
Q 366 413 366 863 
Q 366 956 381 1097 
Q 397 1238 428 1388 
z
" transform="scale(0.015625)"/>
      <path id="DejaVuSans-Oblique-65" d="M 3078 2063 
Q 3088 2113 3092 2166 
Q 3097 2219 3097 2272 
Q 3097 2653 2873 2875 
Q 2650 3097 2266 3097 
Q 1838 3097 1509 2826 
Q 1181 2556 1013 2059 
L 3078 2063 
z
M 3578 1613 
L 903 1613 
Q 884 1494 878 1425 
Q 872 1356 872 1306 
Q 872 872 1139 634 
Q 1406 397 1894 397 
Q 2269 397 2603 481 
Q 2938 566 3225 728 
L 3116 159 
Q 2806 34 2476 -28 
Q 2147 -91 1806 -91 
Q 1078 -91 686 257 
Q 294 606 294 1247 
Q 294 1794 489 2264 
Q 684 2734 1063 3103 
Q 1306 3334 1642 3459 
Q 1978 3584 2356 3584 
Q 2950 3584 3301 3228 
Q 3653 2872 3653 2272 
Q 3653 2128 3634 1964 
Q 3616 1800 3578 1613 
z
" transform="scale(0.015625)"/>
      <path id="DejaVuSans-Oblique-47" d="M 3494 697 
L 3738 1919 
L 2700 1919 
L 2797 2438 
L 4453 2438 
L 4050 384 
Q 3634 156 3143 32 
Q 2653 -91 2156 -91 
Q 1278 -91 783 396 
Q 288 884 288 1753 
Q 288 2475 589 3126 
Q 891 3778 1422 4213 
Q 1756 4484 2153 4617 
Q 2550 4750 3034 4750 
Q 3472 4750 3873 4639 
Q 4275 4528 4641 4306 
L 4513 3634 
Q 4231 3928 3853 4083 
Q 3475 4238 3047 4238 
Q 2550 4238 2172 4048 
Q 1794 3859 1497 3463 
Q 1244 3125 1098 2667 
Q 953 2209 953 1734 
Q 953 1081 1287 751 
Q 1622 422 2284 422 
Q 2616 422 2925 492 
Q 3234 563 3494 697 
z
" transform="scale(0.015625)"/>
      <path id="DejaVuSans-Oblique-62" d="M 3169 2138 
Q 3169 2591 2961 2847 
Q 2753 3103 2388 3103 
Q 2122 3103 1889 2973 
Q 1656 2844 1484 2597 
Q 1303 2338 1198 1995 
Q 1094 1653 1094 1313 
Q 1094 881 1298 636 
Q 1503 391 1863 391 
Q 2134 391 2365 517 
Q 2597 644 2772 891 
Q 2950 1147 3059 1487 
Q 3169 1828 3169 2138 
z
M 1381 2969 
Q 1594 3256 1914 3420 
Q 2234 3584 2584 3584 
Q 3122 3584 3439 3221 
Q 3756 2859 3756 2241 
Q 3756 1734 3570 1259 
Q 3384 784 3041 416 
Q 2816 172 2522 40 
Q 2228 -91 1906 -91 
Q 1566 -91 1316 65 
Q 1066 222 909 531 
L 806 0 
L 231 0 
L 1178 4863 
L 1753 4863 
L 1381 2969 
z
" transform="scale(0.015625)"/>
      <path id="DejaVuSans-Oblique-67" d="M 3816 3500 
L 3219 434 
Q 3047 -456 2561 -893 
Q 2075 -1331 1253 -1331 
Q 950 -1331 690 -1286 
Q 431 -1241 206 -1147 
L 313 -588 
Q 525 -725 762 -790 
Q 1000 -856 1269 -856 
Q 1816 -856 2167 -557 
Q 2519 -259 2631 300 
L 2681 563 
Q 2441 288 2122 144 
Q 1803 0 1434 0 
Q 903 0 598 351 
Q 294 703 294 1319 
Q 294 1803 478 2267 
Q 663 2731 997 3091 
Q 1219 3328 1514 3456 
Q 1809 3584 2131 3584 
Q 2484 3584 2746 3420 
Q 3009 3256 3138 2956 
L 3238 3500 
L 3816 3500 
z
M 2950 2216 
Q 2950 2641 2750 2872 
Q 2550 3103 2181 3103 
Q 1953 3103 1747 3012 
Q 1541 2922 1394 2759 
Q 1156 2491 1023 2127 
Q 891 1763 891 1375 
Q 891 944 1092 712 
Q 1294 481 1672 481 
Q 2219 481 2584 976 
Q 2950 1472 2950 2216 
z
" transform="scale(0.015625)"/>
      <path id="DejaVuSans-Oblique-43" d="M 4447 4306 
L 4319 3641 
Q 4019 3944 3683 4091 
Q 3347 4238 2956 4238 
Q 2422 4238 2017 3981 
Q 1613 3725 1319 3200 
Q 1131 2863 1032 2486 
Q 934 2109 934 1728 
Q 934 1091 1264 756 
Q 1594 422 2222 422 
Q 2656 422 3056 561 
Q 3456 700 3834 978 
L 3688 231 
Q 3316 72 2936 -9 
Q 2556 -91 2175 -91 
Q 1278 -91 773 396 
Q 269 884 269 1753 
Q 269 2309 461 2846 
Q 653 3384 1013 3828 
Q 1394 4300 1883 4525 
Q 2372 4750 3022 4750 
Q 3422 4750 3780 4639 
Q 4138 4528 4447 4306 
z
" transform="scale(0.015625)"/>
      <path id="DejaVuSans-Oblique-6e" d="M 3566 2113 
L 3156 0 
L 2578 0 
L 2988 2091 
Q 3016 2238 3031 2350 
Q 3047 2463 3047 2528 
Q 3047 2791 2881 2937 
Q 2716 3084 2419 3084 
Q 1956 3084 1622 2776 
Q 1288 2469 1184 1941 
L 800 0 
L 225 0 
L 903 3500 
L 1478 3500 
L 1363 2950 
Q 1603 3253 1940 3418 
Q 2278 3584 2650 3584 
Q 3113 3584 3367 3334 
Q 3622 3084 3622 2631 
Q 3622 2519 3608 2391 
Q 3594 2263 3566 2113 
z
" transform="scale(0.015625)"/>
     </defs>
     <use xlink:href="#DejaVuSans-Oblique-46"/>
     <use xlink:href="#DejaVuSans-Oblique-72" transform="translate(57.519531 0)"/>
     <use xlink:href="#DejaVuSans-Oblique-61" transform="translate(98.632812 0)"/>
     <use xlink:href="#DejaVuSans-Oblique-63" transform="translate(159.912109 0)"/>
     <use xlink:href="#DejaVuSans-Oblique-74" transform="translate(214.892578 0)"/>
     <use xlink:href="#DejaVuSans-Oblique-61" transform="translate(254.101562 0)"/>
     <use xlink:href="#DejaVuSans-Oblique-6c" transform="translate(315.380859 0)"/>
     <use xlink:href="#DejaVuSans-Oblique-69" transform="translate(343.164062 0)"/>
     <use xlink:href="#DejaVuSans-Oblique-74" transform="translate(370.947266 0)"/>
     <use xlink:href="#DejaVuSans-Oblique-e9" transform="translate(410.15625 0)"/>
     <use xlink:href="#DejaVuSans-Oblique-20" transform="translate(471.679688 0)"/>
     <use xlink:href="#DejaVuSans-Oblique-68" transform="translate(503.466797 0)"/>
     <use xlink:href="#DejaVuSans-Oblique-69" transform="translate(566.845703 0)"/>
     <use xlink:href="#DejaVuSans-Oblique-73" transform="translate(594.628906 0)"/>
     <use xlink:href="#DejaVuSans-Oblique-74" transform="translate(646.728516 0)"/>
     <use xlink:href="#DejaVuSans-Oblique-6f" transform="translate(685.9375 0)"/>
     <use xlink:href="#DejaVuSans-Oblique-72" transform="translate(747.119141 0)"/>
     <use xlink:href="#DejaVuSans-Oblique-69" transform="translate(788.232422 0)"/>
     <use xlink:href="#DejaVuSans-Oblique-71" transform="translate(816.015625 0)"/>
     <use xlink:href="#DejaVuSans-Oblique-75" transform="translate(879.492188 0)"/>
     <use xlink:href="#DejaVuSans-Oblique-65" transform="translate(942.871094 0)"/>
     <use xlink:href="#DejaVuSans-Oblique-20" transform="translate(1004.394531 0)"/>
     <use xlink:href="#DejaVuSans-Oblique-65" transform="translate(1036.181641 0)"/>
     <use xlink:href="#DejaVuSans-Oblique-74" transform="translate(1097.705078 0)"/>
     <use xlink:href="#DejaVuSans-Oblique-20" transform="translate(1136.914062 0)"/>
     <use xlink:href="#DejaVuSans-Oblique-47" transform="translate(1168.701172 0)"/>
     <use xlink:href="#DejaVuSans-Oblique-61" transform="translate(1246.191406 0)"/>
     <use xlink:href="#DejaVuSans-Oblique-72" transform="translate(1307.470703 0)"/>
     <use xlink:href="#DejaVuSans-Oblique-62" transform="translate(1348.583984 0)"/>
     <use xlink:href="#DejaVuSans-Oblique-61" transform="translate(1412.060547 0)"/>
     <use xlink:href="#DejaVuSans-Oblique-67" transform="translate(1473.339844 0)"/>
     <use xlink:href="#DejaVuSans-Oblique-65" transform="translate(1536.816406 0)"/>
     <use xlink:href="#DejaVuSans-Oblique-20" transform="translate(1598.339844 0)"/>
     <use xlink:href="#DejaVuSans-Oblique-43" transform="translate(1630.126953 0)"/>
     <use xlink:href="#DejaVuSans-Oblique-6f" transform="translate(1699.951172 0)"/>
     <use xlink:href="#DejaVuSans-Oblique-6c" transform="translate(1761.132812 0)"/>
     <use xlink:href="#DejaVuSans-Oblique-6c" transform="translate(1788.916016 0)"/>
     <use xlink:href="#DejaVuSans-Oblique-65" transform="translate(1816.699219 0)"/>
     <use xlink:href="#DejaVuSans-Oblique-63" transform="translate(1878.222656 0)"/>
     <use xlink:href="#DejaVuSans-Oblique-74" transform="translate(1933.203125 0)"/>
     <use xlink:href="#DejaVuSans-Oblique-69" transform="translate(1972.412109 0)"/>
     <use xlink:href="#DejaVuSans-Oblique-6f" transform="translate(2000.195312 0)"/>
     <use xlink:href="#DejaVuSans-Oblique-6e" transform="translate(2061.376953 0)"/>
    </g>
   </g>
   <g id="text_3">
    <!-- 1066 -->
    <g style="fill: #8b4513" transform="translate(108.62 326.480375) scale(0.08 -0.08)">
     <defs>
      <path id="DejaVuSans-31" d="M 794 531 
L 1825 531 
L 1825 4091 
L 703 3866 
L 703 4441 
L 1819 4666 
L 2450 4666 
L 2450 531 
L 3481 531 
L 3481 0 
L 794 0 
L 794 531 
z
" transform="scale(0.015625)"/>
      <path id="DejaVuSans-30" d="M 2034 4250 
Q 1547 4250 1301 3770 
Q 1056 3291 1056 2328 
Q 1056 1369 1301 889 
Q 1547 409 2034 409 
Q 2525 409 2770 889 
Q 3016 1369 3016 2328 
Q 3016 3291 2770 3770 
Q 2525 4250 2034 4250 
z
M 2034 4750 
Q 2819 4750 3233 4129 
Q 3647 3509 3647 2328 
Q 3647 1150 3233 529 
Q 2819 -91 2034 -91 
Q 1250 -91 836 529 
Q 422 1150 422 2328 
Q 422 3509 836 4129 
Q 1250 4750 2034 4750 
z
" transform="scale(0.015625)"/>
      <path id="DejaVuSans-36" d="M 2113 2584 
Q 1688 2584 1439 2293 
Q 1191 2003 1191 1497 
Q 1191 994 1439 701 
Q 1688 409 2113 409 
Q 2538 409 2786 701 
Q 3034 994 3034 1497 
Q 3034 2003 2786 2293 
Q 2538 2584 2113 2584 
z
M 3366 4563 
L 3366 3988 
Q 3128 4100 2886 4159 
Q 2644 4219 2406 4219 
Q 1781 4219 1451 3797 
Q 1122 3375 1075 2522 
Q 1259 2794 1537 2939 
Q 1816 3084 2150 3084 
Q 2853 3084 3261 2657 
Q 3669 2231 3669 1497 
Q 3669 778 3244 343 
Q 2819 -91 2113 -91 
Q 1303 -91 875 529 
Q 447 1150 447 2328 
Q 447 3434 972 4092 
Q 1497 4750 2381 4750 
Q 2619 4750 2861 4703 
Q 3103 4656 3366 4563 
z
" transform="scale(0.015625)"/>
     </defs>
     <use xlink:href="#DejaVuSans-31"/>
     <use xlink:href="#DejaVuSans-30" transform="translate(63.623047 0)"/>
     <use xlink:href="#DejaVuSans-36" transform="translate(127.246094 0)"/>
     <use xlink:href="#DejaVuSans-36" transform="translate(190.869141 0)"/>
    </g>
    <!-- Hastings -->
    <g style="fill: #8b4513" transform="translate(101.419375 335.438625) scale(0.08 -0.08)">
     <defs>
      <path id="DejaVuSans-48" d="M 628 4666 
L 1259 4666 
L 1259 2753 
L 3553 2753 
L 3553 4666 
L 4184 4666 
L 4184 0 
L 3553 0 
L 3553 2222 
L 1259 2222 
L 1259 0 
L 628 0 
L 628 4666 
z
" transform="scale(0.015625)"/>
      <path id="DejaVuSans-61" d="M 2194 1759 
Q 1497 1759 1228 1600 
Q 959 1441 959 1056 
Q 959 750 1161 570 
Q 1363 391 1709 391 
Q 2188 391 2477 730 
Q 2766 1069 2766 1631 
L 2766 1759 
L 2194 1759 
z
M 3341 1997 
L 3341 0 
L 2766 0 
L 2766 531 
Q 2569 213 2275 61 
Q 1981 -91 1556 -91 
Q 1019 -91 701 211 
Q 384 513 384 1019 
Q 384 1609 779 1909 
Q 1175 2209 1959 2209 
L 2766 2209 
L 2766 2266 
Q 2766 2663 2505 2880 
Q 2244 3097 1772 3097 
Q 1472 3097 1187 3025 
Q 903 2953 641 2809 
L 641 3341 
Q 956 3463 1253 3523 
Q 1550 3584 1831 3584 
Q 2591 3584 2966 3190 
Q 3341 2797 3341 1997 
z
" transform="scale(0.015625)"/>
      <path id="DejaVuSans-73" d="M 2834 3397 
L 2834 2853 
Q 2591 2978 2328 3040 
Q 2066 3103 1784 3103 
Q 1356 3103 1142 2972 
Q 928 2841 928 2578 
Q 928 2378 1081 2264 
Q 1234 2150 1697 2047 
L 1894 2003 
Q 2506 1872 2764 1633 
Q 3022 1394 3022 966 
Q 3022 478 2636 193 
Q 2250 -91 1575 -91 
Q 1294 -91 989 -36 
Q 684 19 347 128 
L 347 722 
Q 666 556 975 473 
Q 1284 391 1588 391 
Q 1994 391 2212 530 
Q 2431 669 2431 922 
Q 2431 1156 2273 1281 
Q 2116 1406 1581 1522 
L 1381 1569 
Q 847 1681 609 1914 
Q 372 2147 372 2553 
Q 372 3047 722 3315 
Q 1072 3584 1716 3584 
Q 2034 3584 2315 3537 
Q 2597 3491 2834 3397 
z
" transform="scale(0.015625)"/>
      <path id="DejaVuSans-74" d="M 1172 4494 
L 1172 3500 
L 2356 3500 
L 2356 3053 
L 1172 3053 
L 1172 1153 
Q 1172 725 1289 603 
Q 1406 481 1766 481 
L 2356 481 
L 2356 0 
L 1766 0 
Q 1100 0 847 248 
Q 594 497 594 1153 
L 594 3053 
L 172 3053 
L 172 3500 
L 594 3500 
L 594 4494 
L 1172 4494 
z
" transform="scale(0.015625)"/>
      <path id="DejaVuSans-69" d="M 603 3500 
L 1178 3500 
L 1178 0 
L 603 0 
L 603 3500 
z
M 603 4863 
L 1178 4863 
L 1178 4134 
L 603 4134 
L 603 4863 
z
" transform="scale(0.015625)"/>
      <path id="DejaVuSans-6e" d="M 3513 2113 
L 3513 0 
L 2938 0 
L 2938 2094 
Q 2938 2591 2744 2837 
Q 2550 3084 2163 3084 
Q 1697 3084 1428 2787 
Q 1159 2491 1159 1978 
L 1159 0 
L 581 0 
L 581 3500 
L 1159 3500 
L 1159 2956 
Q 1366 3272 1645 3428 
Q 1925 3584 2291 3584 
Q 2894 3584 3203 3211 
Q 3513 2838 3513 2113 
z
" transform="scale(0.015625)"/>
      <path id="DejaVuSans-67" d="M 2906 1791 
Q 2906 2416 2648 2759 
Q 2391 3103 1925 3103 
Q 1463 3103 1205 2759 
Q 947 2416 947 1791 
Q 947 1169 1205 825 
Q 1463 481 1925 481 
Q 2391 481 2648 825 
Q 2906 1169 2906 1791 
z
M 3481 434 
Q 3481 -459 3084 -895 
Q 2688 -1331 1869 -1331 
Q 1566 -1331 1297 -1286 
Q 1028 -1241 775 -1147 
L 775 -588 
Q 1028 -725 1275 -790 
Q 1522 -856 1778 -856 
Q 2344 -856 2625 -561 
Q 2906 -266 2906 331 
L 2906 616 
Q 2728 306 2450 153 
Q 2172 0 1784 0 
Q 1141 0 747 490 
Q 353 981 353 1791 
Q 353 2603 747 3093 
Q 1141 3584 1784 3584 
Q 2172 3584 2450 3431 
Q 2728 3278 2906 2969 
L 2906 3500 
L 3481 3500 
L 3481 434 
z
" transform="scale(0.015625)"/>
     </defs>
     <use xlink:href="#DejaVuSans-48"/>
     <use xlink:href="#DejaVuSans-61" transform="translate(75.195312 0)"/>
     <use xlink:href="#DejaVuSans-73" transform="translate(136.474609 0)"/>
     <use xlink:href="#DejaVuSans-74" transform="translate(188.574219 0)"/>
     <use xlink:href="#DejaVuSans-69" transform="translate(227.783203 0)"/>
     <use xlink:href="#DejaVuSans-6e" transform="translate(255.566406 0)"/>
     <use xlink:href="#DejaVuSans-67" transform="translate(318.945312 0)"/>
     <use xlink:href="#DejaVuSans-73" transform="translate(382.421875 0)"/>
    </g>
   </g>
   <g id="text_4">
    <!-- 1944 -->
    <g style="fill: #2c3e50" transform="translate(387.62 326.480375) scale(0.08 -0.08)">
     <defs>
      <path id="DejaVuSans-39" d="M 703 97 
L 703 672 
Q 941 559 1184 500 
Q 1428 441 1663 441 
Q 2288 441 2617 861 
Q 2947 1281 2994 2138 
Q 2813 1869 2534 1725 
Q 2256 1581 1919 1581 
Q 1219 1581 811 2004 
Q 403 2428 403 3163 
Q 403 3881 828 4315 
Q 1253 4750 1959 4750 
Q 2769 4750 3195 4129 
Q 3622 3509 3622 2328 
Q 3622 1225 3098 567 
Q 2575 -91 1691 -91 
Q 1453 -91 1209 -44 
Q 966 3 703 97 
z
M 1959 2075 
Q 2384 2075 2632 2365 
Q 2881 2656 2881 3163 
Q 2881 3666 2632 3958 
Q 2384 4250 1959 4250 
Q 1534 4250 1286 3958 
Q 1038 3666 1038 3163 
Q 1038 2656 1286 2365 
Q 1534 2075 1959 2075 
z
" transform="scale(0.015625)"/>
      <path id="DejaVuSans-34" d="M 2419 4116 
L 825 1625 
L 2419 1625 
L 2419 4116 
z
M 2253 4666 
L 3047 4666 
L 3047 1625 
L 3713 1625 
L 3713 1100 
L 3047 1100 
L 3047 0 
L 2419 0 
L 2419 1100 
L 313 1100 
L 313 1709 
L 2253 4666 
z
" transform="scale(0.015625)"/>
     </defs>
     <use xlink:href="#DejaVuSans-31"/>
     <use xlink:href="#DejaVuSans-39" transform="translate(63.623047 0)"/>
     <use xlink:href="#DejaVuSans-34" transform="translate(127.246094 0)"/>
     <use xlink:href="#DejaVuSans-34" transform="translate(190.869141 0)"/>
    </g>
    <!-- D-Day -->
    <g style="fill: #2c3e50" transform="translate(385.378125 335.438625) scale(0.08 -0.08)">
     <defs>
      <path id="DejaVuSans-44" d="M 1259 4147 
L 1259 519 
L 2022 519 
Q 2988 519 3436 956 
Q 3884 1394 3884 2338 
Q 3884 3275 3436 3711 
Q 2988 4147 2022 4147 
L 1259 4147 
z
M 628 4666 
L 1925 4666 
Q 3281 4666 3915 4102 
Q 4550 3538 4550 2338 
Q 4550 1131 3912 565 
Q 3275 0 1925 0 
L 628 0 
L 628 4666 
z
" transform="scale(0.015625)"/>
      <path id="DejaVuSans-2d" d="M 313 2009 
L 1997 2009 
L 1997 1497 
L 313 1497 
L 313 2009 
z
" transform="scale(0.015625)"/>
      <path id="DejaVuSans-79" d="M 2059 -325 
Q 1816 -950 1584 -1140 
Q 1353 -1331 966 -1331 
L 506 -1331 
L 506 -850 
L 844 -850 
Q 1081 -850 1212 -737 
Q 1344 -625 1503 -206 
L 1606 56 
L 191 3500 
L 800 3500 
L 1894 763 
L 2988 3500 
L 3597 3500 
L 2059 -325 
z
" transform="scale(0.015625)"/>
     </defs>
     <use xlink:href="#DejaVuSans-44"/>
     <use xlink:href="#DejaVuSans-2d" transform="translate(77.001953 0)"/>
     <use xlink:href="#DejaVuSans-44" transform="translate(113.085938 0)"/>
     <use xlink:href="#DejaVuSans-61" transform="translate(190.087891 0)"/>
     <use xlink:href="#DejaVuSans-79" transform="translate(251.367188 0)"/>
    </g>
   </g>
   <g id="text_5">
    <!-- 2031 -->
    <g style="fill: #e94560" transform="translate(555.02 215.600375) scale(0.08 -0.08)">
     <defs>
      <path id="DejaVuSans-32" d="M 1228 531 
L 3431 531 
L 3431 0 
L 469 0 
L 469 531 
Q 828 903 1448 1529 
Q 2069 2156 2228 2338 
Q 2531 2678 2651 2914 
Q 2772 3150 2772 3378 
Q 2772 3750 2511 3984 
Q 2250 4219 1831 4219 
Q 1534 4219 1204 4116 
Q 875 4013 500 3803 
L 500 4441 
Q 881 4594 1212 4672 
Q 1544 4750 1819 4750 
Q 2544 4750 2975 4387 
Q 3406 4025 3406 3419 
Q 3406 3131 3298 2873 
Q 3191 2616 2906 2266 
Q 2828 2175 2409 1742 
Q 1991 1309 1228 531 
z
" transform="scale(0.015625)"/>
      <path id="DejaVuSans-33" d="M 2597 2516 
Q 3050 2419 3304 2112 
Q 3559 1806 3559 1356 
Q 3559 666 3084 287 
Q 2609 -91 1734 -91 
Q 1441 -91 1130 -33 
Q 819 25 488 141 
L 488 750 
Q 750 597 1062 519 
Q 1375 441 1716 441 
Q 2309 441 2620 675 
Q 2931 909 2931 1356 
Q 2931 1769 2642 2001 
Q 2353 2234 1838 2234 
L 1294 2234 
L 1294 2753 
L 1863 2753 
Q 2328 2753 2575 2939 
Q 2822 3125 2822 3475 
Q 2822 3834 2567 4026 
Q 2313 4219 1838 4219 
Q 1578 4219 1281 4162 
Q 984 4106 628 3988 
L 628 4550 
Q 988 4650 1302 4700 
Q 1616 4750 1894 4750 
Q 2613 4750 3031 4423 
Q 3450 4097 3450 3541 
Q 3450 3153 3228 2886 
Q 3006 2619 2597 2516 
z
" transform="scale(0.015625)"/>
     </defs>
     <use xlink:href="#DejaVuSans-32"/>
     <use xlink:href="#DejaVuSans-30" transform="translate(63.623047 0)"/>
     <use xlink:href="#DejaVuSans-33" transform="translate(127.246094 0)"/>
     <use xlink:href="#DejaVuSans-31" transform="translate(190.869141 0)"/>
    </g>
    <!-- Accident -->
    <g style="fill: #e94560" transform="translate(547.92 224.558625) scale(0.08 -0.08)">
     <defs>
      <path id="DejaVuSans-41" d="M 2188 4044 
L 1331 1722 
L 3047 1722 
L 2188 4044 
z
M 1831 4666 
L 2547 4666 
L 4325 0 
L 3669 0 
L 3244 1197 
L 1141 1197 
L 716 0 
L 50 0 
L 1831 4666 
z
" transform="scale(0.015625)"/>
      <path id="DejaVuSans-63" d="M 3122 3366 
L 3122 2828 
Q 2878 2963 2633 3030 
Q 2388 3097 2138 3097 
Q 1578 3097 1268 2742 
Q 959 2388 959 1747 
Q 959 1106 1268 751 
Q 1578 397 2138 397 
Q 2388 397 2633 464 
Q 2878 531 3122 666 
L 3122 134 
Q 2881 22 2623 -34 
Q 2366 -91 2075 -91 
Q 1284 -91 818 406 
Q 353 903 353 1747 
Q 353 2603 823 3093 
Q 1294 3584 2113 3584 
Q 2378 3584 2631 3529 
Q 2884 3475 3122 3366 
z
" transform="scale(0.015625)"/>
      <path id="DejaVuSans-64" d="M 2906 2969 
L 2906 4863 
L 3481 4863 
L 3481 0 
L 2906 0 
L 2906 525 
Q 2725 213 2448 61 
Q 2172 -91 1784 -91 
Q 1150 -91 751 415 
Q 353 922 353 1747 
Q 353 2572 751 3078 
Q 1150 3584 1784 3584 
Q 2172 3584 2448 3432 
Q 2725 3281 2906 2969 
z
M 947 1747 
Q 947 1113 1208 752 
Q 1469 391 1925 391 
Q 2381 391 2643 752 
Q 2906 1113 2906 1747 
Q 2906 2381 2643 2742 
Q 2381 3103 1925 3103 
Q 1469 3103 1208 2742 
Q 947 2381 947 1747 
z
" transform="scale(0.015625)"/>
      <path id="DejaVuSans-65" d="M 3597 1894 
L 3597 1613 
L 953 1613 
Q 991 1019 1311 708 
Q 1631 397 2203 397 
Q 2534 397 2845 478 
Q 3156 559 3463 722 
L 3463 178 
Q 3153 47 2828 -22 
Q 2503 -91 2169 -91 
Q 1331 -91 842 396 
Q 353 884 353 1716 
Q 353 2575 817 3079 
Q 1281 3584 2069 3584 
Q 2775 3584 3186 3129 
Q 3597 2675 3597 1894 
z
M 3022 2063 
Q 3016 2534 2758 2815 
Q 2500 3097 2075 3097 
Q 1594 3097 1305 2825 
Q 1016 2553 972 2059 
L 3022 2063 
z
" transform="scale(0.015625)"/>
     </defs>
     <use xlink:href="#DejaVuSans-41"/>
     <use xlink:href="#DejaVuSans-63" transform="translate(66.658203 0)"/>
     <use xlink:href="#DejaVuSans-63" transform="translate(121.638672 0)"/>
     <use xlink:href="#DejaVuSans-69" transform="translate(176.619141 0)"/>
     <use xlink:href="#DejaVuSans-64" transform="translate(204.402344 0)"/>
     <use xlink:href="#DejaVuSans-65" transform="translate(267.878906 0)"/>
     <use xlink:href="#DejaVuSans-6e" transform="translate(329.402344 0)"/>
     <use xlink:href="#DejaVuSans-74" transform="translate(392.78125 0)"/>
    </g>
   </g>
   <g id="text_6">
    <!-- 2075 -->
    <g style="fill: #533483" transform="translate(666.62 326.480375) scale(0.08 -0.08)">
     <defs>
      <path id="DejaVuSans-37" d="M 525 4666 
L 3525 4666 
L 3525 4397 
L 1831 0 
L 1172 0 
L 2766 4134 
L 525 4134 
L 525 4666 
z
" transform="scale(0.015625)"/>
      <path id="DejaVuSans-35" d="M 691 4666 
L 3169 4666 
L 3169 4134 
L 1269 4134 
L 1269 2991 
Q 1406 3038 1543 3061 
Q 1681 3084 1819 3084 
Q 2600 3084 3056 2656 
Q 3513 2228 3513 1497 
Q 3513 744 3044 326 
Q 2575 -91 1722 -91 
Q 1428 -91 1123 -41 
Q 819 9 494 109 
L 494 744 
Q 775 591 1075 516 
Q 1375 441 1709 441 
Q 2250 441 2565 725 
Q 2881 1009 2881 1497 
Q 2881 1984 2565 2268 
Q 2250 2553 1709 2553 
Q 1456 2553 1204 2497 
Q 953 2441 691 2322 
L 691 4666 
z
" transform="scale(0.015625)"/>
     </defs>
     <use xlink:href="#DejaVuSans-32"/>
     <use xlink:href="#DejaVuSans-30" transform="translate(63.623047 0)"/>
     <use xlink:href="#DejaVuSans-37" transform="translate(127.246094 0)"/>
     <use xlink:href="#DejaVuSans-35" transform="translate(190.869141 0)"/>
    </g>
    <!-- Présent -->
    <g style="fill: #533483" transform="translate(661.794375 335.438625) scale(0.08 -0.08)">
     <defs>
      <path id="DejaVuSans-50" d="M 1259 4147 
L 1259 2394 
L 2053 2394 
Q 2494 2394 2734 2622 
Q 2975 2850 2975 3272 
Q 2975 3691 2734 3919 
Q 2494 4147 2053 4147 
L 1259 4147 
z
M 628 4666 
L 2053 4666 
Q 2838 4666 3239 4311 
Q 3641 3956 3641 3272 
Q 3641 2581 3239 2228 
Q 2838 1875 2053 1875 
L 1259 1875 
L 1259 0 
L 628 0 
L 628 4666 
z
" transform="scale(0.015625)"/>
      <path id="DejaVuSans-72" d="M 2631 2963 
Q 2534 3019 2420 3045 
Q 2306 3072 2169 3072 
Q 1681 3072 1420 2755 
Q 1159 2438 1159 1844 
L 1159 0 
L 581 0 
L 581 3500 
L 1159 3500 
L 1159 2956 
Q 1341 3275 1631 3429 
Q 1922 3584 2338 3584 
Q 2397 3584 2469 3576 
Q 2541 3569 2628 3553 
L 2631 2963 
z
" transform="scale(0.015625)"/>
      <path id="DejaVuSans-e9" d="M 3597 1894 
L 3597 1613 
L 953 1613 
Q 991 1019 1311 708 
Q 1631 397 2203 397 
Q 2534 397 2845 478 
Q 3156 559 3463 722 
L 3463 178 
Q 3153 47 2828 -22 
Q 2503 -91 2169 -91 
Q 1331 -91 842 396 
Q 353 884 353 1716 
Q 353 2575 817 3079 
Q 1281 3584 2069 3584 
Q 2775 3584 3186 3129 
Q 3597 2675 3597 1894 
z
M 3022 2063 
Q 3016 2534 2758 2815 
Q 2500 3097 2075 3097 
Q 1594 3097 1305 2825 
Q 1016 2553 972 2059 
L 3022 2063 
z
M 2466 5119 
L 3088 5119 
L 2070 3944 
L 1591 3944 
L 2466 5119 
z
" transform="scale(0.015625)"/>
     </defs>
     <use xlink:href="#DejaVuSans-50"/>
     <use xlink:href="#DejaVuSans-72" transform="translate(58.552734 0)"/>
     <use xlink:href="#DejaVuSans-e9" transform="translate(97.416016 0)"/>
     <use xlink:href="#DejaVuSans-73" transform="translate(158.939453 0)"/>
     <use xlink:href="#DejaVuSans-65" transform="translate(211.039062 0)"/>
     <use xlink:href="#DejaVuSans-6e" transform="translate(272.5625 0)"/>
     <use xlink:href="#DejaVuSans-74" transform="translate(335.941406 0)"/>
    </g>
   </g>
   <g id="text_7">
    <!-- 2078 -->
    <g style="fill: #0f3460" transform="translate(610.82 437.360375) scale(0.08 -0.08)">
     <defs>
      <path id="DejaVuSans-38" d="M 2034 2216 
Q 1584 2216 1326 1975 
Q 1069 1734 1069 1313 
Q 1069 891 1326 650 
Q 1584 409 2034 409 
Q 2484 409 2743 651 
Q 3003 894 3003 1313 
Q 3003 1734 2745 1975 
Q 2488 2216 2034 2216 
z
M 1403 2484 
Q 997 2584 770 2862 
Q 544 3141 544 3541 
Q 544 4100 942 4425 
Q 1341 4750 2034 4750 
Q 2731 4750 3128 4425 
Q 3525 4100 3525 3541 
Q 3525 3141 3298 2862 
Q 3072 2584 2669 2484 
Q 3125 2378 3379 2068 
Q 3634 1759 3634 1313 
Q 3634 634 3220 271 
Q 2806 -91 2034 -91 
Q 1263 -91 848 271 
Q 434 634 434 1313 
Q 434 1759 690 2068 
Q 947 2378 1403 2484 
z
M 1172 3481 
Q 1172 3119 1398 2916 
Q 1625 2713 2034 2713 
Q 2441 2713 2670 2916 
Q 2900 3119 2900 3481 
Q 2900 3844 2670 4047 
Q 2441 4250 2034 4250 
Q 1625 4250 1398 4047 
Q 1172 3844 1172 3481 
z
" transform="scale(0.015625)"/>
     </defs>
     <use xlink:href="#DejaVuSans-32"/>
     <use xlink:href="#DejaVuSans-30" transform="translate(63.623047 0)"/>
     <use xlink:href="#DejaVuSans-37" transform="translate(127.246094 0)"/>
     <use xlink:href="#DejaVuSans-38" transform="translate(190.869141 0)"/>
    </g>
    <!-- Convergence -->
    <g style="fill: #0f3460" transform="translate(594.625 446.318625) scale(0.08 -0.08)">
     <defs>
      <path id="DejaVuSans-43" d="M 4122 4306 
L 4122 3641 
Q 3803 3938 3442 4084 
Q 3081 4231 2675 4231 
Q 1875 4231 1450 3742 
Q 1025 3253 1025 2328 
Q 1025 1406 1450 917 
Q 1875 428 2675 428 
Q 3081 428 3442 575 
Q 3803 722 4122 1019 
L 4122 359 
Q 3791 134 3420 21 
Q 3050 -91 2638 -91 
Q 1578 -91 968 557 
Q 359 1206 359 2328 
Q 359 3453 968 4101 
Q 1578 4750 2638 4750 
Q 3056 4750 3426 4639 
Q 3797 4528 4122 4306 
z
" transform="scale(0.015625)"/>
      <path id="DejaVuSans-6f" d="M 1959 3097 
Q 1497 3097 1228 2736 
Q 959 2375 959 1747 
Q 959 1119 1226 758 
Q 1494 397 1959 397 
Q 2419 397 2687 759 
Q 2956 1122 2956 1747 
Q 2956 2369 2687 2733 
Q 2419 3097 1959 3097 
z
M 1959 3584 
Q 2709 3584 3137 3096 
Q 3566 2609 3566 1747 
Q 3566 888 3137 398 
Q 2709 -91 1959 -91 
Q 1206 -91 779 398 
Q 353 888 353 1747 
Q 353 2609 779 3096 
Q 1206 3584 1959 3584 
z
" transform="scale(0.015625)"/>
      <path id="DejaVuSans-76" d="M 191 3500 
L 800 3500 
L 1894 563 
L 2988 3500 
L 3597 3500 
L 2284 0 
L 1503 0 
L 191 3500 
z
" transform="scale(0.015625)"/>
     </defs>
     <use xlink:href="#DejaVuSans-43"/>
     <use xlink:href="#DejaVuSans-6f" transform="translate(69.824219 0)"/>
     <use xlink:href="#DejaVuSans-6e" transform="translate(131.005859 0)"/>
     <use xlink:href="#DejaVuSans-76" transform="translate(194.384766 0)"/>
     <use xlink:href="#DejaVuSans-65" transform="translate(253.564453 0)"/>
     <use xlink:href="#DejaVuSans-72" transform="translate(315.087891 0)"/>
     <use xlink:href="#DejaVuSans-67" transform="translate(354.451172 0)"/>
     <use xlink:href="#DejaVuSans-65" transform="translate(417.927734 0)"/>
     <use xlink:href="#DejaVuSans-6e" transform="translate(479.451172 0)"/>
     <use xlink:href="#DejaVuSans-63" transform="translate(542.830078 0)"/>
     <use xlink:href="#DejaVuSans-65" transform="translate(597.810547 0)"/>
    </g>
   </g>
   <g id="text_8">
    <!-- Garbage Collection Loop -->
    <g style="fill: #e94560" transform="translate(336.328125 176.279375) scale(0.1 -0.1)">
     <defs>
      <path id="DejaVuSans-Oblique-4c" d="M 1075 4666 
L 1709 4666 
L 909 525 
L 3181 525 
L 3078 0 
L 172 0 
L 1075 4666 
z
" transform="scale(0.015625)"/>
      <path id="DejaVuSans-Oblique-70" d="M 3175 2156 
Q 3175 2616 2975 2859 
Q 2775 3103 2400 3103 
Q 2144 3103 1911 2972 
Q 1678 2841 1497 2591 
Q 1319 2344 1212 1994 
Q 1106 1644 1106 1300 
Q 1106 863 1306 627 
Q 1506 391 1875 391 
Q 2147 391 2380 519 
Q 2613 647 2778 891 
Q 2956 1147 3065 1494 
Q 3175 1841 3175 2156 
z
M 1394 2969 
Q 1625 3272 1939 3428 
Q 2253 3584 2638 3584 
Q 3175 3584 3472 3232 
Q 3769 2881 3769 2247 
Q 3769 1728 3584 1258 
Q 3400 788 3053 416 
Q 2822 169 2531 39 
Q 2241 -91 1919 -91 
Q 1547 -91 1294 64 
Q 1041 219 916 525 
L 556 -1331 
L -19 -1331 
L 922 3500 
L 1497 3500 
L 1394 2969 
z
" transform="scale(0.015625)"/>
     </defs>
     <use xlink:href="#DejaVuSans-Oblique-47"/>
     <use xlink:href="#DejaVuSans-Oblique-61" transform="translate(77.490234 0)"/>
     <use xlink:href="#DejaVuSans-Oblique-72" transform="translate(138.769531 0)"/>
     <use xlink:href="#DejaVuSans-Oblique-62" transform="translate(179.882812 0)"/>
     <use xlink:href="#DejaVuSans-Oblique-61" transform="translate(243.359375 0)"/>
     <use xlink:href="#DejaVuSans-Oblique-67" transform="translate(304.638672 0)"/>
     <use xlink:href="#DejaVuSans-Oblique-65" transform="translate(368.115234 0)"/>
     <use xlink:href="#DejaVuSans-Oblique-20" transform="translate(429.638672 0)"/>
     <use xlink:href="#DejaVuSans-Oblique-43" transform="translate(461.425781 0)"/>
     <use xlink:href="#DejaVuSans-Oblique-6f" transform="translate(531.25 0)"/>
     <use xlink:href="#DejaVuSans-Oblique-6c" transform="translate(592.431641 0)"/>
     <use xlink:href="#DejaVuSans-Oblique-6c" transform="translate(620.214844 0)"/>
     <use xlink:href="#DejaVuSans-Oblique-65" transform="translate(647.998047 0)"/>
     <use xlink:href="#DejaVuSans-Oblique-63" transform="translate(709.521484 0)"/>
     <use xlink:href="#DejaVuSans-Oblique-74" transform="translate(764.501953 0)"/>
     <use xlink:href="#DejaVuSans-Oblique-69" transform="translate(803.710938 0)"/>
     <use xlink:href="#DejaVuSans-Oblique-6f" transform="translate(831.494141 0)"/>
     <use xlink:href="#DejaVuSans-Oblique-6e" transform="translate(892.675781 0)"/>
     <use xlink:href="#DejaVuSans-Oblique-20" transform="translate(956.054688 0)"/>
     <use xlink:href="#DejaVuSans-Oblique-4c" transform="translate(987.841797 0)"/>
     <use xlink:href="#DejaVuSans-Oblique-6f" transform="translate(1043.554688 0)"/>
     <use xlink:href="#DejaVuSans-Oblique-6f" transform="translate(1104.736328 0)"/>
     <use xlink:href="#DejaVuSans-Oblique-70" transform="translate(1165.917969 0)"/>
    </g>
   </g>
   <g id="text_9">
    <!-- Types de fils temporels : -->
    <g style="fill: #1a1a2e" transform="translate(63 450.72) scale(0.1 -0.1)">
     <defs>
      <path id="DejaVuSans-Bold-79" d="M 78 3500 
L 1197 3500 
L 2138 1125 
L 2938 3500 
L 4056 3500 
L 2584 -331 
Q 2363 -916 2067 -1148 
Q 1772 -1381 1288 -1381 
L 641 -1381 
L 641 -647 
L 991 -647 
Q 1275 -647 1404 -556 
Q 1534 -466 1606 -231 
L 1638 -134 
L 78 3500 
z
" transform="scale(0.015625)"/>
      <path id="DejaVuSans-Bold-70" d="M 1656 506 
L 1656 -1331 
L 538 -1331 
L 538 3500 
L 1656 3500 
L 1656 2988 
Q 1888 3294 2169 3439 
Q 2450 3584 2816 3584 
Q 3463 3584 3878 3070 
Q 4294 2556 4294 1747 
Q 4294 938 3878 423 
Q 3463 -91 2816 -91 
Q 2450 -91 2169 54 
Q 1888 200 1656 506 
z
M 2400 2772 
Q 2041 2772 1848 2508 
Q 1656 2244 1656 1747 
Q 1656 1250 1848 986 
Q 2041 722 2400 722 
Q 2759 722 2948 984 
Q 3138 1247 3138 1747 
Q 3138 2247 2948 2509 
Q 2759 2772 2400 2772 
z
" transform="scale(0.015625)"/>
      <path id="DejaVuSans-Bold-65" d="M 4031 1759 
L 4031 1441 
L 1416 1441 
Q 1456 1047 1700 850 
Q 1944 653 2381 653 
Q 2734 653 3104 758 
Q 3475 863 3866 1075 
L 3866 213 
Q 3469 63 3072 -14 
Q 2675 -91 2278 -91 
Q 1328 -91 801 392 
Q 275 875 275 1747 
Q 275 2603 792 3093 
Q 1309 3584 2216 3584 
Q 3041 3584 3536 3087 
Q 4031 2591 4031 1759 
z
M 2881 2131 
Q 2881 2450 2695 2645 
Q 2509 2841 2209 2841 
Q 1884 2841 1681 2658 
Q 1478 2475 1428 2131 
L 2881 2131 
z
" transform="scale(0.015625)"/>
      <path id="DejaVuSans-Bold-73" d="M 3272 3391 
L 3272 2541 
Q 2913 2691 2578 2766 
Q 2244 2841 1947 2841 
Q 1628 2841 1473 2761 
Q 1319 2681 1319 2516 
Q 1319 2381 1436 2309 
Q 1553 2238 1856 2203 
L 2053 2175 
Q 2913 2066 3209 1816 
Q 3506 1566 3506 1031 
Q 3506 472 3093 190 
Q 2681 -91 1863 -91 
Q 1516 -91 1145 -36 
Q 775 19 384 128 
L 384 978 
Q 719 816 1070 734 
Q 1422 653 1784 653 
Q 2113 653 2278 743 
Q 2444 834 2444 1013 
Q 2444 1163 2330 1236 
Q 2216 1309 1875 1350 
L 1678 1375 
Q 931 1469 631 1722 
Q 331 1975 331 2491 
Q 331 3047 712 3315 
Q 1094 3584 1881 3584 
Q 2191 3584 2531 3537 
Q 2872 3491 3272 3391 
z
" transform="scale(0.015625)"/>
      <path id="DejaVuSans-Bold-64" d="M 2919 2988 
L 2919 4863 
L 4044 4863 
L 4044 0 
L 2919 0 
L 2919 506 
Q 2688 197 2409 53 
Q 2131 -91 1766 -91 
Q 1119 -91 703 423 
Q 288 938 288 1747 
Q 288 2556 703 3070 
Q 1119 3584 1766 3584 
Q 2128 3584 2408 3439 
Q 2688 3294 2919 2988 
z
M 2181 722 
Q 2541 722 2730 984 
Q 2919 1247 2919 1747 
Q 2919 2247 2730 2509 
Q 2541 2772 2181 2772 
Q 1825 2772 1636 2509 
Q 1447 2247 1447 1747 
Q 1447 1247 1636 984 
Q 1825 722 2181 722 
z
" transform="scale(0.015625)"/>
      <path id="DejaVuSans-Bold-66" d="M 2841 4863 
L 2841 4128 
L 2222 4128 
Q 1984 4128 1890 4042 
Q 1797 3956 1797 3744 
L 1797 3500 
L 2753 3500 
L 2753 2700 
L 1797 2700 
L 1797 0 
L 678 0 
L 678 2700 
L 122 2700 
L 122 3500 
L 678 3500 
L 678 3744 
Q 678 4316 997 4589 
Q 1316 4863 1984 4863 
L 2841 4863 
z
" transform="scale(0.015625)"/>
      <path id="DejaVuSans-Bold-69" d="M 538 3500 
L 1656 3500 
L 1656 0 
L 538 0 
L 538 3500 
z
M 538 4863 
L 1656 4863 
L 1656 3950 
L 538 3950 
L 538 4863 
z
" transform="scale(0.015625)"/>
      <path id="DejaVuSans-Bold-6c" d="M 538 4863 
L 1656 4863 
L 1656 0 
L 538 0 
L 538 4863 
z
" transform="scale(0.015625)"/>
      <path id="DejaVuSans-Bold-74" d="M 1759 4494 
L 1759 3500 
L 2913 3500 
L 2913 2700 
L 1759 2700 
L 1759 1216 
Q 1759 972 1856 886 
Q 1953 800 2241 800 
L 2816 800 
L 2816 0 
L 1856 0 
Q 1194 0 917 276 
Q 641 553 641 1216 
L 641 2700 
L 84 2700 
L 84 3500 
L 641 3500 
L 641 4494 
L 1759 4494 
z
" transform="scale(0.015625)"/>
      <path id="DejaVuSans-Bold-6d" d="M 3781 2919 
Q 3994 3244 4286 3414 
Q 4578 3584 4928 3584 
Q 5531 3584 5847 3212 
Q 6163 2841 6163 2131 
L 6163 0 
L 5038 0 
L 5038 1825 
Q 5041 1866 5042 1909 
Q 5044 1953 5044 2034 
Q 5044 2406 4934 2573 
Q 4825 2741 4581 2741 
Q 4263 2741 4089 2478 
Q 3916 2216 3909 1719 
L 3909 0 
L 2784 0 
L 2784 1825 
Q 2784 2406 2684 2573 
Q 2584 2741 2328 2741 
Q 2006 2741 1831 2477 
Q 1656 2213 1656 1722 
L 1656 0 
L 531 0 
L 531 3500 
L 1656 3500 
L 1656 2988 
Q 1863 3284 2130 3434 
Q 2397 3584 2719 3584 
Q 3081 3584 3359 3409 
Q 3638 3234 3781 2919 
z
" transform="scale(0.015625)"/>
      <path id="DejaVuSans-Bold-6f" d="M 2203 2784 
Q 1831 2784 1636 2517 
Q 1441 2250 1441 1747 
Q 1441 1244 1636 976 
Q 1831 709 2203 709 
Q 2569 709 2762 976 
Q 2956 1244 2956 1747 
Q 2956 2250 2762 2517 
Q 2569 2784 2203 2784 
z
M 2203 3584 
Q 3106 3584 3614 3096 
Q 4122 2609 4122 1747 
Q 4122 884 3614 396 
Q 3106 -91 2203 -91 
Q 1297 -91 786 396 
Q 275 884 275 1747 
Q 275 2609 786 3096 
Q 1297 3584 2203 3584 
z
" transform="scale(0.015625)"/>
      <path id="DejaVuSans-Bold-72" d="M 3138 2547 
Q 2991 2616 2845 2648 
Q 2700 2681 2553 2681 
Q 2122 2681 1889 2404 
Q 1656 2128 1656 1613 
L 1656 0 
L 538 0 
L 538 3500 
L 1656 3500 
L 1656 2925 
Q 1872 3269 2151 3426 
Q 2431 3584 2822 3584 
Q 2878 3584 2943 3579 
Q 3009 3575 3134 3559 
L 3138 2547 
z
" transform="scale(0.015625)"/>
     </defs>
     <use xlink:href="#DejaVuSans-Bold-54"/>
     <use xlink:href="#DejaVuSans-Bold-79" transform="translate(56.337891 0)"/>
     <use xlink:href="#DejaVuSans-Bold-70" transform="translate(121.523438 0)"/>
     <use xlink:href="#DejaVuSans-Bold-65" transform="translate(193.105469 0)"/>
     <use xlink:href="#DejaVuSans-Bold-73" transform="translate(260.927734 0)"/>
     <use xlink:href="#DejaVuSans-Bold-20" transform="translate(320.449219 0)"/>
     <use xlink:href="#DejaVuSans-Bold-64" transform="translate(355.263672 0)"/>
     <use xlink:href="#DejaVuSans-Bold-65" transform="translate(426.845703 0)"/>
     <use xlink:href="#DejaVuSans-Bold-20" transform="translate(494.667969 0)"/>
     <use xlink:href="#DejaVuSans-Bold-66" transform="translate(529.482422 0)"/>
     <use xlink:href="#DejaVuSans-Bold-69" transform="translate(572.988281 0)"/>
     <use xlink:href="#DejaVuSans-Bold-6c" transform="translate(607.265625 0)"/>
     <use xlink:href="#DejaVuSans-Bold-73" transform="translate(641.542969 0)"/>
     <use xlink:href="#DejaVuSans-Bold-20" transform="translate(701.064453 0)"/>
     <use xlink:href="#DejaVuSans-Bold-74" transform="translate(735.878906 0)"/>
     <use xlink:href="#DejaVuSans-Bold-65" transform="translate(783.681641 0)"/>
     <use xlink:href="#DejaVuSans-Bold-6d" transform="translate(851.503906 0)"/>
     <use xlink:href="#DejaVuSans-Bold-70" transform="translate(955.703125 0)"/>
     <use xlink:href="#DejaVuSans-Bold-6f" transform="translate(1027.285156 0)"/>
     <use xlink:href="#DejaVuSans-Bold-72" transform="translate(1095.986328 0)"/>
     <use xlink:href="#DejaVuSans-Bold-65" transform="translate(1145.302734 0)"/>
     <use xlink:href="#DejaVuSans-Bold-6c" transform="translate(1213.125 0)"/>
     <use xlink:href="#DejaVuSans-Bold-73" transform="translate(1247.402344 0)"/>
     <use xlink:href="#DejaVuSans-Bold-20" transform="translate(1306.923828 0)"/>
     <use xlink:href="#DejaVuSans-Bold-3a" transform="translate(1341.738281 0)"/>
    </g>
   </g>
   <g id="text_10">
    <!-- Cycle primaire (conquête) -->
    <g style="fill: #808080" transform="translate(102.06 480.8075) scale(0.08 -0.08)">
     <defs>
      <path id="DejaVuSans-6c" d="M 603 4863 
L 1178 4863 
L 1178 0 
L 603 0 
L 603 4863 
z
" transform="scale(0.015625)"/>
      <path id="DejaVuSans-20" transform="scale(0.015625)"/>
      <path id="DejaVuSans-70" d="M 1159 525 
L 1159 -1331 
L 581 -1331 
L 581 3500 
L 1159 3500 
L 1159 2969 
Q 1341 3281 1617 3432 
Q 1894 3584 2278 3584 
Q 2916 3584 3314 3078 
Q 3713 2572 3713 1747 
Q 3713 922 3314 415 
Q 2916 -91 2278 -91 
Q 1894 -91 1617 61 
Q 1341 213 1159 525 
z
M 3116 1747 
Q 3116 2381 2855 2742 
Q 2594 3103 2138 3103 
Q 1681 3103 1420 2742 
Q 1159 2381 1159 1747 
Q 1159 1113 1420 752 
Q 1681 391 2138 391 
Q 2594 391 2855 752 
Q 3116 1113 3116 1747 
z
" transform="scale(0.015625)"/>
      <path id="DejaVuSans-6d" d="M 3328 2828 
Q 3544 3216 3844 3400 
Q 4144 3584 4550 3584 
Q 5097 3584 5394 3201 
Q 5691 2819 5691 2113 
L 5691 0 
L 5113 0 
L 5113 2094 
Q 5113 2597 4934 2840 
Q 4756 3084 4391 3084 
Q 3944 3084 3684 2787 
Q 3425 2491 3425 1978 
L 3425 0 
L 2847 0 
L 2847 2094 
Q 2847 2600 2669 2842 
Q 2491 3084 2119 3084 
Q 1678 3084 1418 2786 
Q 1159 2488 1159 1978 
L 1159 0 
L 581 0 
L 581 3500 
L 1159 3500 
L 1159 2956 
Q 1356 3278 1631 3431 
Q 1906 3584 2284 3584 
Q 2666 3584 2933 3390 
Q 3200 3197 3328 2828 
z
" transform="scale(0.015625)"/>
      <path id="DejaVuSans-28" d="M 1984 4856 
Q 1566 4138 1362 3434 
Q 1159 2731 1159 2009 
Q 1159 1288 1364 580 
Q 1569 -128 1984 -844 
L 1484 -844 
Q 1016 -109 783 600 
Q 550 1309 550 2009 
Q 550 2706 781 3412 
Q 1013 4119 1484 4856 
L 1984 4856 
z
" transform="scale(0.015625)"/>
      <path id="DejaVuSans-71" d="M 947 1747 
Q 947 1113 1208 752 
Q 1469 391 1925 391 
Q 2381 391 2643 752 
Q 2906 1113 2906 1747 
Q 2906 2381 2643 2742 
Q 2381 3103 1925 3103 
Q 1469 3103 1208 2742 
Q 947 2381 947 1747 
z
M 2906 525 
Q 2725 213 2448 61 
Q 2172 -91 1784 -91 
Q 1150 -91 751 415 
Q 353 922 353 1747 
Q 353 2572 751 3078 
Q 1150 3584 1784 3584 
Q 2172 3584 2448 3432 
Q 2725 3281 2906 2969 
L 2906 3500 
L 3481 3500 
L 3481 -1331 
L 2906 -1331 
L 2906 525 
z
" transform="scale(0.015625)"/>
      <path id="DejaVuSans-75" d="M 544 1381 
L 544 3500 
L 1119 3500 
L 1119 1403 
Q 1119 906 1312 657 
Q 1506 409 1894 409 
Q 2359 409 2629 706 
Q 2900 1003 2900 1516 
L 2900 3500 
L 3475 3500 
L 3475 0 
L 2900 0 
L 2900 538 
Q 2691 219 2414 64 
Q 2138 -91 1772 -91 
Q 1169 -91 856 284 
Q 544 659 544 1381 
z
M 1991 3584 
L 1991 3584 
z
" transform="scale(0.015625)"/>
      <path id="DejaVuSans-ea" d="M 3597 1894 
L 3597 1613 
L 953 1613 
Q 991 1019 1311 708 
Q 1631 397 2203 397 
Q 2534 397 2845 478 
Q 3156 559 3463 722 
L 3463 178 
Q 3153 47 2828 -22 
Q 2503 -91 2169 -91 
Q 1331 -91 842 396 
Q 353 884 353 1716 
Q 353 2575 817 3079 
Q 1281 3584 2069 3584 
Q 2775 3584 3186 3129 
Q 3597 2675 3597 1894 
z
M 3022 2063 
Q 3016 2534 2758 2815 
Q 2500 3097 2075 3097 
Q 1594 3097 1305 2825 
Q 1016 2553 972 2059 
L 3022 2063 
z
M 1801 5119 
L 2263 5119 
L 3029 3944 
L 2595 3944 
L 2032 4709 
L 1470 3944 
L 1035 3944 
L 1801 5119 
z
" transform="scale(0.015625)"/>
      <path id="DejaVuSans-29" d="M 513 4856 
L 1013 4856 
Q 1481 4119 1714 3412 
Q 1947 2706 1947 2009 
Q 1947 1309 1714 600 
Q 1481 -109 1013 -844 
L 513 -844 
Q 928 -128 1133 580 
Q 1338 1288 1338 2009 
Q 1338 2731 1133 3434 
Q 928 4138 513 4856 
z
" transform="scale(0.015625)"/>
     </defs>
     <use xlink:href="#DejaVuSans-43"/>
     <use xlink:href="#DejaVuSans-79" transform="translate(69.824219 0)"/>
     <use xlink:href="#DejaVuSans-63" transform="translate(129.003906 0)"/>
     <use xlink:href="#DejaVuSans-6c" transform="translate(183.984375 0)"/>
     <use xlink:href="#DejaVuSans-65" transform="translate(211.767578 0)"/>
     <use xlink:href="#DejaVuSans-20" transform="translate(273.291016 0)"/>
     <use xlink:href="#DejaVuSans-70" transform="translate(305.078125 0)"/>
     <use xlink:href="#DejaVuSans-72" transform="translate(368.554688 0)"/>
     <use xlink:href="#DejaVuSans-69" transform="translate(409.667969 0)"/>
     <use xlink:href="#DejaVuSans-6d" transform="translate(437.451172 0)"/>
     <use xlink:href="#DejaVuSans-61" transform="translate(534.863281 0)"/>
     <use xlink:href="#DejaVuSans-69" transform="translate(596.142578 0)"/>
     <use xlink:href="#DejaVuSans-72" transform="translate(623.925781 0)"/>
     <use xlink:href="#DejaVuSans-65" transform="translate(662.789062 0)"/>
     <use xlink:href="#DejaVuSans-20" transform="translate(724.3125 0)"/>
     <use xlink:href="#DejaVuSans-28" transform="translate(756.099609 0)"/>
     <use xlink:href="#DejaVuSans-63" transform="translate(795.113281 0)"/>
     <use xlink:href="#DejaVuSans-6f" transform="translate(850.09375 0)"/>
     <use xlink:href="#DejaVuSans-6e" transform="translate(911.275391 0)"/>
     <use xlink:href="#DejaVuSans-71" transform="translate(974.654297 0)"/>
     <use xlink:href="#DejaVuSans-75" transform="translate(1038.130859 0)"/>
     <use xlink:href="#DejaVuSans-ea" transform="translate(1101.509766 0)"/>
     <use xlink:href="#DejaVuSans-74" transform="translate(1163.033203 0)"/>
     <use xlink:href="#DejaVuSans-65" transform="translate(1202.242188 0)"/>
     <use xlink:href="#DejaVuSans-29" transform="translate(1263.765625 0)"/>
    </g>
   </g>
   <g id="text_11">
    <!-- Cycle secondaire (libération) -->
    <g style="fill: #808080" transform="translate(102.06 502.9835) scale(0.08 -0.08)">
     <defs>
      <path id="DejaVuSans-62" d="M 3116 1747 
Q 3116 2381 2855 2742 
Q 2594 3103 2138 3103 
Q 1681 3103 1420 2742 
Q 1159 2381 1159 1747 
Q 1159 1113 1420 752 
Q 1681 391 2138 391 
Q 2594 391 2855 752 
Q 3116 1113 3116 1747 
z
M 1159 2969 
Q 1341 3281 1617 3432 
Q 1894 3584 2278 3584 
Q 2916 3584 3314 3078 
Q 3713 2572 3713 1747 
Q 3713 922 3314 415 
Q 2916 -91 2278 -91 
Q 1894 -91 1617 61 
Q 1341 213 1159 525 
L 1159 0 
L 581 0 
L 581 4863 
L 1159 4863 
L 1159 2969 
z
" transform="scale(0.015625)"/>
     </defs>
     <use xlink:href="#DejaVuSans-43"/>
     <use xlink:href="#DejaVuSans-79" transform="translate(69.824219 0)"/>
     <use xlink:href="#DejaVuSans-63" transform="translate(129.003906 0)"/>
     <use xlink:href="#DejaVuSans-6c" transform="translate(183.984375 0)"/>
     <use xlink:href="#DejaVuSans-65" transform="translate(211.767578 0)"/>
     <use xlink:href="#DejaVuSans-20" transform="translate(273.291016 0)"/>
     <use xlink:href="#DejaVuSans-73" transform="translate(305.078125 0)"/>
     <use xlink:href="#DejaVuSans-65" transform="translate(357.177734 0)"/>
     <use xlink:href="#DejaVuSans-63" transform="translate(418.701172 0)"/>
     <use xlink:href="#DejaVuSans-6f" transform="translate(473.681641 0)"/>
     <use xlink:href="#DejaVuSans-6e" transform="translate(534.863281 0)"/>
     <use xlink:href="#DejaVuSans-64" transform="translate(598.242188 0)"/>
     <use xlink:href="#DejaVuSans-61" transform="translate(661.71875 0)"/>
     <use xlink:href="#DejaVuSans-69" transform="translate(722.998047 0)"/>
     <use xlink:href="#DejaVuSans-72" transform="translate(750.78125 0)"/>
     <use xlink:href="#DejaVuSans-65" transform="translate(789.644531 0)"/>
     <use xlink:href="#DejaVuSans-20" transform="translate(851.167969 0)"/>
     <use xlink:href="#DejaVuSans-28" transform="translate(882.955078 0)"/>
     <use xlink:href="#DejaVuSans-6c" transform="translate(921.96875 0)"/>
     <use xlink:href="#DejaVuSans-69" transform="translate(949.751953 0)"/>
     <use xlink:href="#DejaVuSans-62" transform="translate(977.535156 0)"/>
     <use xlink:href="#DejaVuSans-e9" transform="translate(1041.011719 0)"/>
     <use xlink:href="#DejaVuSans-72" transform="translate(1102.535156 0)"/>
     <use xlink:href="#DejaVuSans-61" transform="translate(1143.648438 0)"/>
     <use xlink:href="#DejaVuSans-74" transform="translate(1204.927734 0)"/>
     <use xlink:href="#DejaVuSans-69" transform="translate(1244.136719 0)"/>
     <use xlink:href="#DejaVuSans-6f" transform="translate(1271.919922 0)"/>
     <use xlink:href="#DejaVuSans-6e" transform="translate(1333.101562 0)"/>
     <use xlink:href="#DejaVuSans-29" transform="translate(1396.480469 0)"/>
    </g>
   </g>
   <g id="text_12">
    <!-- Boucle récursive (1011 ans) -->
    <g style="fill: #808080" transform="translate(102.06 524.9995) scale(0.08 -0.08)">
     <defs>
      <path id="DejaVuSans-42" d="M 1259 2228 
L 1259 519 
L 2272 519 
Q 2781 519 3026 730 
Q 3272 941 3272 1375 
Q 3272 1813 3026 2020 
Q 2781 2228 2272 2228 
L 1259 2228 
z
M 1259 4147 
L 1259 2741 
L 2194 2741 
Q 2656 2741 2882 2914 
Q 3109 3088 3109 3444 
Q 3109 3797 2882 3972 
Q 2656 4147 2194 4147 
L 1259 4147 
z
M 628 4666 
L 2241 4666 
Q 2963 4666 3353 4366 
Q 3744 4066 3744 3513 
Q 3744 3084 3544 2831 
Q 3344 2578 2956 2516 
Q 3422 2416 3680 2098 
Q 3938 1781 3938 1306 
Q 3938 681 3513 340 
Q 3088 0 2303 0 
L 628 0 
L 628 4666 
z
" transform="scale(0.015625)"/>
     </defs>
     <use xlink:href="#DejaVuSans-42"/>
     <use xlink:href="#DejaVuSans-6f" transform="translate(68.603516 0)"/>
     <use xlink:href="#DejaVuSans-75" transform="translate(129.785156 0)"/>
     <use xlink:href="#DejaVuSans-63" transform="translate(193.164062 0)"/>
     <use xlink:href="#DejaVuSans-6c" transform="translate(248.144531 0)"/>
     <use xlink:href="#DejaVuSans-65" transform="translate(275.927734 0)"/>
     <use xlink:href="#DejaVuSans-20" transform="translate(337.451172 0)"/>
     <use xlink:href="#DejaVuSans-72" transform="translate(369.238281 0)"/>
     <use xlink:href="#DejaVuSans-e9" transform="translate(408.101562 0)"/>
     <use xlink:href="#DejaVuSans-63" transform="translate(469.625 0)"/>
     <use xlink:href="#DejaVuSans-75" transform="translate(524.605469 0)"/>
     <use xlink:href="#DejaVuSans-72" transform="translate(587.984375 0)"/>
     <use xlink:href="#DejaVuSans-73" transform="translate(629.097656 0)"/>
     <use xlink:href="#DejaVuSans-69" transform="translate(681.197266 0)"/>
     <use xlink:href="#DejaVuSans-76" transform="translate(708.980469 0)"/>
     <use xlink:href="#DejaVuSans-65" transform="translate(768.160156 0)"/>
     <use xlink:href="#DejaVuSans-20" transform="translate(829.683594 0)"/>
     <use xlink:href="#DejaVuSans-28" transform="translate(861.470703 0)"/>
     <use xlink:href="#DejaVuSans-31" transform="translate(900.484375 0)"/>
     <use xlink:href="#DejaVuSans-30" transform="translate(964.107422 0)"/>
     <use xlink:href="#DejaVuSans-31" transform="translate(1027.730469 0)"/>
     <use xlink:href="#DejaVuSans-31" transform="translate(1091.353516 0)"/>
     <use xlink:href="#DejaVuSans-20" transform="translate(1154.976562 0)"/>
     <use xlink:href="#DejaVuSans-61" transform="translate(1186.763672 0)"/>
     <use xlink:href="#DejaVuSans-6e" transform="translate(1248.042969 0)"/>
     <use xlink:href="#DejaVuSans-73" transform="translate(1311.421875 0)"/>
     <use xlink:href="#DejaVuSans-29" transform="translate(1363.521484 0)"/>
    </g>
   </g>
   <g id="text_13">
    <!-- Événement critique (accident) -->
    <g style="fill: #808080" transform="translate(102.06 547.83675) scale(0.08 -0.08)">
     <defs>
      <path id="DejaVuSans-c9" d="M 628 4666 
L 3578 4666 
L 3578 4134 
L 1259 4134 
L 1259 2753 
L 3481 2753 
L 3481 2222 
L 1259 2222 
L 1259 531 
L 3634 531 
L 3634 0 
L 628 0 
L 628 4666 
z
M 2268 5921 
L 2846 5921 
L 2134 5096 
L 1655 5096 
L 2268 5921 
z
" transform="scale(0.015625)"/>
     </defs>
     <use xlink:href="#DejaVuSans-c9"/>
     <use xlink:href="#DejaVuSans-76" transform="translate(63.183594 0)"/>
     <use xlink:href="#DejaVuSans-e9" transform="translate(122.363281 0)"/>
     <use xlink:href="#DejaVuSans-6e" transform="translate(183.886719 0)"/>
     <use xlink:href="#DejaVuSans-65" transform="translate(247.265625 0)"/>
     <use xlink:href="#DejaVuSans-6d" transform="translate(308.789062 0)"/>
     <use xlink:href="#DejaVuSans-65" transform="translate(406.201172 0)"/>
     <use xlink:href="#DejaVuSans-6e" transform="translate(467.724609 0)"/>
     <use xlink:href="#DejaVuSans-74" transform="translate(531.103516 0)"/>
     <use xlink:href="#DejaVuSans-20" transform="translate(570.3125 0)"/>
     <use xlink:href="#DejaVuSans-63" transform="translate(602.099609 0)"/>
     <use xlink:href="#DejaVuSans-72" transform="translate(657.080078 0)"/>
     <use xlink:href="#DejaVuSans-69" transform="translate(698.193359 0)"/>
     <use xlink:href="#DejaVuSans-74" transform="translate(725.976562 0)"/>
     <use xlink:href="#DejaVuSans-69" transform="translate(765.185547 0)"/>
     <use xlink:href="#DejaVuSans-71" transform="translate(792.96875 0)"/>
     <use xlink:href="#DejaVuSans-75" transform="translate(856.445312 0)"/>
     <use xlink:href="#DejaVuSans-65" transform="translate(919.824219 0)"/>
     <use xlink:href="#DejaVuSans-20" transform="translate(981.347656 0)"/>
     <use xlink:href="#DejaVuSans-28" transform="translate(1013.134766 0)"/>
     <use xlink:href="#DejaVuSans-61" transform="translate(1052.148438 0)"/>
     <use xlink:href="#DejaVuSans-63" transform="translate(1113.427734 0)"/>
     <use xlink:href="#DejaVuSans-63" transform="translate(1168.408203 0)"/>
     <use xlink:href="#DejaVuSans-69" transform="translate(1223.388672 0)"/>
     <use xlink:href="#DejaVuSans-64" transform="translate(1251.171875 0)"/>
     <use xlink:href="#DejaVuSans-65" transform="translate(1314.648438 0)"/>
     <use xlink:href="#DejaVuSans-6e" transform="translate(1376.171875 0)"/>
     <use xlink:href="#DejaVuSans-74" transform="translate(1439.550781 0)"/>
     <use xlink:href="#DejaVuSans-29" transform="translate(1478.759766 0)"/>
    </g>
   </g>
   <g id="text_14">
    <!-- Chaque nœud est -->
    <g style="fill: #808080" transform="translate(696.90875 272.978125) scale(0.08 -0.08)">
     <defs>
      <path id="DejaVuSans-Oblique-153" d="M 6222 1613 
L 3547 1613 
Q 3534 1528 3526 1450 
Q 3519 1372 3519 1306 
Q 3519 872 3784 634 
Q 4050 397 4538 397 
Q 4913 397 5252 481 
Q 5591 566 5875 728 
L 5759 159 
Q 5450 38 5122 -26 
Q 4794 -91 4453 -91 
Q 3950 -91 3590 81 
Q 3231 253 3084 563 
Q 2769 234 2408 71 
Q 2047 -91 1625 -91 
Q 1028 -91 661 281 
Q 294 653 294 1253 
Q 294 1681 412 2086 
Q 531 2491 738 2766 
Q 1047 3184 1428 3384 
Q 1809 3584 2291 3584 
Q 2697 3584 3008 3401 
Q 3319 3219 3488 2881 
Q 3797 3231 4175 3407 
Q 4553 3584 4997 3584 
Q 5594 3584 5945 3228 
Q 6297 2872 6297 2272 
Q 6297 2128 6278 1964 
Q 6259 1800 6222 1613 
z
M 5722 2063 
Q 5731 2113 5736 2166 
Q 5741 2219 5741 2272 
Q 5741 2653 5517 2875 
Q 5294 3097 4909 3097 
Q 4478 3097 4151 2826 
Q 3825 2556 3653 2059 
L 5722 2063 
z
M 891 1344 
Q 891 869 1089 633 
Q 1288 397 1691 397 
Q 2269 397 2648 897 
Q 3028 1397 3028 2175 
Q 3028 2634 2826 2865 
Q 2625 3097 2228 3097 
Q 1903 3097 1650 2945 
Q 1397 2794 1197 2484 
Q 1050 2253 970 1956 
Q 891 1659 891 1344 
z
" transform="scale(0.015625)"/>
      <path id="DejaVuSans-Oblique-64" d="M 2675 525 
Q 2444 222 2128 65 
Q 1813 -91 1428 -91 
Q 903 -91 598 267 
Q 294 625 294 1247 
Q 294 1766 478 2236 
Q 663 2706 1013 3078 
Q 1244 3325 1534 3454 
Q 1825 3584 2144 3584 
Q 2481 3584 2739 3421 
Q 2997 3259 3138 2956 
L 3513 4863 
L 4091 4863 
L 3144 0 
L 2566 0 
L 2675 525 
z
M 891 1350 
Q 891 897 1095 644 
Q 1300 391 1663 391 
Q 1931 391 2161 520 
Q 2391 650 2566 903 
Q 2750 1166 2856 1509 
Q 2963 1853 2963 2188 
Q 2963 2622 2758 2865 
Q 2553 3109 2194 3109 
Q 1922 3109 1687 2981 
Q 1453 2853 1288 2613 
Q 1106 2353 998 2009 
Q 891 1666 891 1350 
z
" transform="scale(0.015625)"/>
     </defs>
     <use xlink:href="#DejaVuSans-Oblique-43"/>
     <use xlink:href="#DejaVuSans-Oblique-68" transform="translate(69.824219 0)"/>
     <use xlink:href="#DejaVuSans-Oblique-61" transform="translate(133.203125 0)"/>
     <use xlink:href="#DejaVuSans-Oblique-71" transform="translate(194.482422 0)"/>
     <use xlink:href="#DejaVuSans-Oblique-75" transform="translate(257.958984 0)"/>
     <use xlink:href="#DejaVuSans-Oblique-65" transform="translate(321.337891 0)"/>
     <use xlink:href="#DejaVuSans-Oblique-20" transform="translate(382.861328 0)"/>
     <use xlink:href="#DejaVuSans-Oblique-6e" transform="translate(414.648438 0)"/>
     <use xlink:href="#DejaVuSans-Oblique-153" transform="translate(478.027344 0)"/>
     <use xlink:href="#DejaVuSans-Oblique-75" transform="translate(580.810547 0)"/>
     <use xlink:href="#DejaVuSans-Oblique-64" transform="translate(644.189453 0)"/>
     <use xlink:href="#DejaVuSans-Oblique-20" transform="translate(707.666016 0)"/>
     <use xlink:href="#DejaVuSans-Oblique-65" transform="translate(739.453125 0)"/>
     <use xlink:href="#DejaVuSans-Oblique-73" transform="translate(800.976562 0)"/>
     <use xlink:href="#DejaVuSans-Oblique-74" transform="translate(853.076172 0)"/>
    </g>
    <!-- présent dans tous -->
    <g style="fill: #808080" transform="translate(696.520625 282.320375) scale(0.08 -0.08)">
     <use xlink:href="#DejaVuSans-Oblique-70"/>
     <use xlink:href="#DejaVuSans-Oblique-72" transform="translate(63.476562 0)"/>
     <use xlink:href="#DejaVuSans-Oblique-e9" transform="translate(104.589844 0)"/>
     <use xlink:href="#DejaVuSans-Oblique-73" transform="translate(166.113281 0)"/>
     <use xlink:href="#DejaVuSans-Oblique-65" transform="translate(218.212891 0)"/>
     <use xlink:href="#DejaVuSans-Oblique-6e" transform="translate(279.736328 0)"/>
     <use xlink:href="#DejaVuSans-Oblique-74" transform="translate(343.115234 0)"/>
     <use xlink:href="#DejaVuSans-Oblique-20" transform="translate(382.324219 0)"/>
     <use xlink:href="#DejaVuSans-Oblique-64" transform="translate(414.111328 0)"/>
     <use xlink:href="#DejaVuSans-Oblique-61" transform="translate(477.587891 0)"/>
     <use xlink:href="#DejaVuSans-Oblique-6e" transform="translate(538.867188 0)"/>
     <use xlink:href="#DejaVuSans-Oblique-73" transform="translate(602.246094 0)"/>
     <use xlink:href="#DejaVuSans-Oblique-20" transform="translate(654.345703 0)"/>
     <use xlink:href="#DejaVuSans-Oblique-74" transform="translate(686.132812 0)"/>
     <use xlink:href="#DejaVuSans-Oblique-6f" transform="translate(725.341797 0)"/>
     <use xlink:href="#DejaVuSans-Oblique-75" transform="translate(786.523438 0)"/>
     <use xlink:href="#DejaVuSans-Oblique-73" transform="translate(849.902344 0)"/>
    </g>
    <!-- les autres via -->
    <g style="fill: #808080" transform="translate(705.7275 291.278625) scale(0.08 -0.08)">
     <defs>
      <path id="DejaVuSans-Oblique-76" d="M 459 3500 
L 1069 3500 
L 1581 525 
L 3256 3500 
L 3866 3500 
L 1875 0 
L 1100 0 
L 459 3500 
z
" transform="scale(0.015625)"/>
     </defs>
     <use xlink:href="#DejaVuSans-Oblique-6c"/>
     <use xlink:href="#DejaVuSans-Oblique-65" transform="translate(27.783203 0)"/>
     <use xlink:href="#DejaVuSans-Oblique-73" transform="translate(89.306641 0)"/>
     <use xlink:href="#DejaVuSans-Oblique-20" transform="translate(141.40625 0)"/>
     <use xlink:href="#DejaVuSans-Oblique-61" transform="translate(173.193359 0)"/>
     <use xlink:href="#DejaVuSans-Oblique-75" transform="translate(234.472656 0)"/>
     <use xlink:href="#DejaVuSans-Oblique-74" transform="translate(297.851562 0)"/>
     <use xlink:href="#DejaVuSans-Oblique-72" transform="translate(337.060547 0)"/>
     <use xlink:href="#DejaVuSans-Oblique-65" transform="translate(378.173828 0)"/>
     <use xlink:href="#DejaVuSans-Oblique-73" transform="translate(439.697266 0)"/>
     <use xlink:href="#DejaVuSans-Oblique-20" transform="translate(491.796875 0)"/>
     <use xlink:href="#DejaVuSans-Oblique-76" transform="translate(523.583984 0)"/>
     <use xlink:href="#DejaVuSans-Oblique-69" transform="translate(582.763672 0)"/>
     <use xlink:href="#DejaVuSans-Oblique-61" transform="translate(610.546875 0)"/>
    </g>
    <!-- résonance fractale -->
    <g style="fill: #808080" transform="translate(695.215 300.236875) scale(0.08 -0.08)">
     <defs>
      <path id="DejaVuSans-Oblique-66" d="M 3059 4863 
L 2969 4384 
L 2419 4384 
Q 2106 4384 1964 4261 
Q 1822 4138 1753 3809 
L 1691 3500 
L 2638 3500 
L 2553 3053 
L 1606 3053 
L 1013 0 
L 434 0 
L 1031 3053 
L 481 3053 
L 563 3500 
L 1113 3500 
L 1159 3744 
Q 1278 4363 1576 4613 
Q 1875 4863 2516 4863 
L 3059 4863 
z
" transform="scale(0.015625)"/>
     </defs>
     <use xlink:href="#DejaVuSans-Oblique-72"/>
     <use xlink:href="#DejaVuSans-Oblique-e9" transform="translate(41.113281 0)"/>
     <use xlink:href="#DejaVuSans-Oblique-73" transform="translate(102.636719 0)"/>
     <use xlink:href="#DejaVuSans-Oblique-6f" transform="translate(154.736328 0)"/>
     <use xlink:href="#DejaVuSans-Oblique-6e" transform="translate(215.917969 0)"/>
     <use xlink:href="#DejaVuSans-Oblique-61" transform="translate(279.296875 0)"/>
     <use xlink:href="#DejaVuSans-Oblique-6e" transform="translate(340.576172 0)"/>
     <use xlink:href="#DejaVuSans-Oblique-63" transform="translate(403.955078 0)"/>
     <use xlink:href="#DejaVuSans-Oblique-65" transform="translate(458.935547 0)"/>
     <use xlink:href="#DejaVuSans-Oblique-20" transform="translate(520.458984 0)"/>
     <use xlink:href="#DejaVuSans-Oblique-66" transform="translate(552.246094 0)"/>
     <use xlink:href="#DejaVuSans-Oblique-72" transform="translate(587.451172 0)"/>
     <use xlink:href="#DejaVuSans-Oblique-61" transform="translate(628.564453 0)"/>
     <use xlink:href="#DejaVuSans-Oblique-63" transform="translate(689.84375 0)"/>
     <use xlink:href="#DejaVuSans-Oblique-74" transform="translate(744.824219 0)"/>
     <use xlink:href="#DejaVuSans-Oblique-61" transform="translate(784.033203 0)"/>
     <use xlink:href="#DejaVuSans-Oblique-6c" transform="translate(845.3125 0)"/>
     <use xlink:href="#DejaVuSans-Oblique-65" transform="translate(873.095703 0)"/>
    </g>
   </g>
   <g id="patch_3">
    <path d="M 118.8 306.576 
C 124.719333 306.576 130.397023 304.239397 134.582623 300.0808 
C 138.768224 295.922203 141.12 290.281144 141.12 284.4 
C 141.12 278.518856 138.768224 272.877797 134.582623 268.7192 
C 130.397023 264.560603 124.719333 262.224 118.8 262.224 
C 112.880667 262.224 107.202977 264.560603 103.017377 268.7192 
C 98.831776 272.877797 96.48 278.518856 96.48 284.4 
C 96.48 290.281144 98.831776 295.922203 103.017377 300.0808 
C 107.202977 304.239397 112.880667 306.576 118.8 306.576 
z
" clip-path="url(#pda88ed382e)" style="fill: #8b4513; stroke: #ffffff; stroke-width: 2; stroke-linejoin: miter"/>
   </g>
   <g id="patch_4">
    <path d="M 397.8 306.576 
C 403.719333 306.576 409.397023 304.239397 413.582623 300.0808 
C 417.768224 295.922203 420.12 290.281144 420.12 284.4 
C 420.12 278.518856 417.768224 272.877797 413.582623 268.7192 
C 409.397023 264.560603 403.719333 262.224 397.8 262.224 
C 391.880667 262.224 386.202977 264.560603 382.017377 268.7192 
C 377.831776 272.877797 375.48 278.518856 375.48 284.4 
C 375.48 290.281144 377.831776 295.922203 382.017377 300.0808 
C 386.202977 304.239397 391.880667 306.576 397.8 306.576 
z
" clip-path="url(#pda88ed382e)" style="fill: #2c3e50; stroke: #ffffff; stroke-width: 2; stroke-linejoin: miter"/>
   </g>
   <g id="patch_5">
    <path d="M 565.2 190.152 
C 569.6395 190.152 573.897767 188.399548 577.036968 185.2806 
C 580.176168 182.161652 581.94 177.930858 581.94 173.52 
C 581.94 169.109142 580.176168 164.878348 577.036968 161.7594 
C 573.897767 158.640452 569.6395 156.888 565.2 156.888 
C 560.7605 156.888 556.502233 158.640452 553.363032 161.7594 
C 550.223832 164.878348 548.46 169.109142 548.46 173.52 
C 548.46 177.930858 550.223832 182.161652 553.363032 185.2806 
C 556.502233 188.399548 560.7605 190.152 565.2 190.152 
z
" clip-path="url(#pda88ed382e)" style="fill: #e94560; stroke: #ffffff; stroke-width: 2; stroke-linejoin: miter"/>
   </g>
   <g id="patch_6">
    <path d="M 676.8 306.576 
C 682.719333 306.576 688.397023 304.239397 692.582623 300.0808 
C 696.768224 295.922203 699.12 290.281144 699.12 284.4 
C 699.12 278.518856 696.768224 272.877797 692.582623 268.7192 
C 688.397023 264.560603 682.719333 262.224 676.8 262.224 
C 670.880667 262.224 665.202977 264.560603 661.017377 268.7192 
C 656.831776 272.877797 654.48 278.518856 654.48 284.4 
C 654.48 290.281144 656.831776 295.922203 661.017377 300.0808 
C 665.202977 304.239397 670.880667 306.576 676.8 306.576 
z
" clip-path="url(#pda88ed382e)" style="fill: #533483; stroke: #ffffff; stroke-width: 2; stroke-linejoin: miter"/>
   </g>
   <g id="patch_7">
    <path d="M 621 414.684 
C 626.179417 414.684 631.147395 412.639472 634.809795 409.0007 
C 638.472196 405.361928 640.53 400.426001 640.53 395.28 
C 640.53 390.133999 638.472196 385.198072 634.809795 381.5593 
C 631.147395 377.920528 626.179417 375.876 621 375.876 
C 615.820583 375.876 610.852605 377.920528 607.190205 381.5593 
C 603.527804 385.198072 601.47 390.133999 601.47 395.28 
C 601.47 400.426001 603.527804 405.361928 607.190205 409.0007 
C 610.852605 412.639472 615.820583 414.684 621 414.684 
z
" clip-path="url(#pda88ed382e)" style="fill: #0f3460; stroke: #ffffff; stroke-width: 2; stroke-linejoin: miter"/>
   </g>
   <g id="text_15">
    <!-- 1066 -->
    <g style="fill: #ffffff" transform="translate(106.275937 286.883438) scale(0.09 -0.09)">
     <defs>
      <path id="DejaVuSans-Bold-31" d="M 750 831 
L 1813 831 
L 1813 3847 
L 722 3622 
L 722 4441 
L 1806 4666 
L 2950 4666 
L 2950 831 
L 4013 831 
L 4013 0 
L 750 0 
L 750 831 
z
" transform="scale(0.015625)"/>
      <path id="DejaVuSans-Bold-30" d="M 2944 2338 
Q 2944 3213 2780 3570 
Q 2616 3928 2228 3928 
Q 1841 3928 1675 3570 
Q 1509 3213 1509 2338 
Q 1509 1453 1675 1090 
Q 1841 728 2228 728 
Q 2613 728 2778 1090 
Q 2944 1453 2944 2338 
z
M 4147 2328 
Q 4147 1169 3647 539 
Q 3147 -91 2228 -91 
Q 1306 -91 806 539 
Q 306 1169 306 2328 
Q 306 3491 806 4120 
Q 1306 4750 2228 4750 
Q 3147 4750 3647 4120 
Q 4147 3491 4147 2328 
z
" transform="scale(0.015625)"/>
      <path id="DejaVuSans-Bold-36" d="M 2316 2303 
Q 2000 2303 1842 2098 
Q 1684 1894 1684 1484 
Q 1684 1075 1842 870 
Q 2000 666 2316 666 
Q 2634 666 2792 870 
Q 2950 1075 2950 1484 
Q 2950 1894 2792 2098 
Q 2634 2303 2316 2303 
z
M 3803 4544 
L 3803 3681 
Q 3506 3822 3243 3889 
Q 2981 3956 2731 3956 
Q 2194 3956 1894 3657 
Q 1594 3359 1544 2772 
Q 1750 2925 1990 3001 
Q 2231 3078 2516 3078 
Q 3231 3078 3670 2659 
Q 4109 2241 4109 1563 
Q 4109 813 3618 361 
Q 3128 -91 2303 -91 
Q 1394 -91 895 523 
Q 397 1138 397 2266 
Q 397 3422 980 4083 
Q 1563 4744 2578 4744 
Q 2900 4744 3203 4694 
Q 3506 4644 3803 4544 
z
" transform="scale(0.015625)"/>
     </defs>
     <use xlink:href="#DejaVuSans-Bold-31"/>
     <use xlink:href="#DejaVuSans-Bold-30" transform="translate(69.580078 0)"/>
     <use xlink:href="#DejaVuSans-Bold-36" transform="translate(139.160156 0)"/>
     <use xlink:href="#DejaVuSans-Bold-36" transform="translate(208.740234 0)"/>
    </g>
   </g>
   <g id="text_16">
    <!-- 1944 -->
    <g style="fill: #ffffff" transform="translate(385.275937 286.883438) scale(0.09 -0.09)">
     <defs>
      <path id="DejaVuSans-Bold-39" d="M 641 103 
L 641 966 
Q 928 831 1190 764 
Q 1453 697 1709 697 
Q 2247 697 2547 995 
Q 2847 1294 2900 1881 
Q 2688 1725 2447 1647 
Q 2206 1569 1925 1569 
Q 1209 1569 770 1986 
Q 331 2403 331 3084 
Q 331 3838 820 4291 
Q 1309 4744 2131 4744 
Q 3044 4744 3544 4128 
Q 4044 3513 4044 2388 
Q 4044 1231 3459 570 
Q 2875 -91 1856 -91 
Q 1528 -91 1228 -42 
Q 928 6 641 103 
z
M 2125 2350 
Q 2441 2350 2600 2554 
Q 2759 2759 2759 3169 
Q 2759 3575 2600 3781 
Q 2441 3988 2125 3988 
Q 1809 3988 1650 3781 
Q 1491 3575 1491 3169 
Q 1491 2759 1650 2554 
Q 1809 2350 2125 2350 
z
" transform="scale(0.015625)"/>
      <path id="DejaVuSans-Bold-34" d="M 2356 3675 
L 1038 1722 
L 2356 1722 
L 2356 3675 
z
M 2156 4666 
L 3494 4666 
L 3494 1722 
L 4159 1722 
L 4159 850 
L 3494 850 
L 3494 0 
L 2356 0 
L 2356 850 
L 288 850 
L 288 1881 
L 2156 4666 
z
" transform="scale(0.015625)"/>
     </defs>
     <use xlink:href="#DejaVuSans-Bold-31"/>
     <use xlink:href="#DejaVuSans-Bold-39" transform="translate(69.580078 0)"/>
     <use xlink:href="#DejaVuSans-Bold-34" transform="translate(139.160156 0)"/>
     <use xlink:href="#DejaVuSans-Bold-34" transform="translate(208.740234 0)"/>
    </g>
   </g>
   <g id="text_17">
    <!-- 2031 -->
    <g style="fill: #ffffff" transform="translate(552.675938 176.003438) scale(0.09 -0.09)">
     <defs>
      <path id="DejaVuSans-Bold-32" d="M 1844 884 
L 3897 884 
L 3897 0 
L 506 0 
L 506 884 
L 2209 2388 
Q 2438 2594 2547 2791 
Q 2656 2988 2656 3200 
Q 2656 3528 2436 3728 
Q 2216 3928 1850 3928 
Q 1569 3928 1234 3808 
Q 900 3688 519 3450 
L 519 4475 
Q 925 4609 1322 4679 
Q 1719 4750 2100 4750 
Q 2938 4750 3402 4381 
Q 3866 4013 3866 3353 
Q 3866 2972 3669 2642 
Q 3472 2313 2841 1759 
L 1844 884 
z
" transform="scale(0.015625)"/>
      <path id="DejaVuSans-Bold-33" d="M 2981 2516 
Q 3453 2394 3698 2092 
Q 3944 1791 3944 1325 
Q 3944 631 3412 270 
Q 2881 -91 1863 -91 
Q 1503 -91 1142 -33 
Q 781 25 428 141 
L 428 1069 
Q 766 900 1098 814 
Q 1431 728 1753 728 
Q 2231 728 2486 893 
Q 2741 1059 2741 1369 
Q 2741 1688 2480 1852 
Q 2219 2016 1709 2016 
L 1228 2016 
L 1228 2791 
L 1734 2791 
Q 2188 2791 2409 2933 
Q 2631 3075 2631 3366 
Q 2631 3634 2415 3781 
Q 2200 3928 1806 3928 
Q 1516 3928 1219 3862 
Q 922 3797 628 3669 
L 628 4550 
Q 984 4650 1334 4700 
Q 1684 4750 2022 4750 
Q 2931 4750 3382 4451 
Q 3834 4153 3834 3553 
Q 3834 3144 3618 2883 
Q 3403 2622 2981 2516 
z
" transform="scale(0.015625)"/>
     </defs>
     <use xlink:href="#DejaVuSans-Bold-32"/>
     <use xlink:href="#DejaVuSans-Bold-30" transform="translate(69.580078 0)"/>
     <use xlink:href="#DejaVuSans-Bold-33" transform="translate(139.160156 0)"/>
     <use xlink:href="#DejaVuSans-Bold-31" transform="translate(208.740234 0)"/>
    </g>
   </g>
   <g id="text_18">
    <!-- 2075 -->
    <g style="fill: #ffffff" transform="translate(664.275937 286.883438) scale(0.09 -0.09)">
     <defs>
      <path id="DejaVuSans-Bold-37" d="M 428 4666 
L 3944 4666 
L 3944 3988 
L 2125 0 
L 953 0 
L 2675 3781 
L 428 3781 
L 428 4666 
z
" transform="scale(0.015625)"/>
      <path id="DejaVuSans-Bold-35" d="M 678 4666 
L 3669 4666 
L 3669 3781 
L 1638 3781 
L 1638 3059 
Q 1775 3097 1914 3117 
Q 2053 3138 2203 3138 
Q 3056 3138 3531 2711 
Q 4006 2284 4006 1522 
Q 4006 766 3489 337 
Q 2972 -91 2053 -91 
Q 1656 -91 1267 -14 
Q 878 63 494 219 
L 494 1166 
Q 875 947 1217 837 
Q 1559 728 1863 728 
Q 2300 728 2551 942 
Q 2803 1156 2803 1522 
Q 2803 1891 2551 2103 
Q 2300 2316 1863 2316 
Q 1603 2316 1309 2248 
Q 1016 2181 678 2041 
L 678 4666 
z
" transform="scale(0.015625)"/>
     </defs>
     <use xlink:href="#DejaVuSans-Bold-32"/>
     <use xlink:href="#DejaVuSans-Bold-30" transform="translate(69.580078 0)"/>
     <use xlink:href="#DejaVuSans-Bold-37" transform="translate(139.160156 0)"/>
     <use xlink:href="#DejaVuSans-Bold-35" transform="translate(208.740234 0)"/>
    </g>
   </g>
   <g id="text_19">
    <!-- 2078 -->
    <g style="fill: #ffffff" transform="translate(608.475937 397.763438) scale(0.09 -0.09)">
     <defs>
      <path id="DejaVuSans-Bold-38" d="M 2228 2088 
Q 1891 2088 1709 1903 
Q 1528 1719 1528 1375 
Q 1528 1031 1709 848 
Q 1891 666 2228 666 
Q 2563 666 2741 848 
Q 2919 1031 2919 1375 
Q 2919 1722 2741 1905 
Q 2563 2088 2228 2088 
z
M 1350 2484 
Q 925 2613 709 2878 
Q 494 3144 494 3541 
Q 494 4131 934 4440 
Q 1375 4750 2228 4750 
Q 3075 4750 3515 4442 
Q 3956 4134 3956 3541 
Q 3956 3144 3739 2878 
Q 3522 2613 3097 2484 
Q 3572 2353 3814 2058 
Q 4056 1763 4056 1313 
Q 4056 619 3595 264 
Q 3134 -91 2228 -91 
Q 1319 -91 855 264 
Q 391 619 391 1313 
Q 391 1763 633 2058 
Q 875 2353 1350 2484 
z
M 1631 3419 
Q 1631 3141 1786 2991 
Q 1941 2841 2228 2841 
Q 2509 2841 2662 2991 
Q 2816 3141 2816 3419 
Q 2816 3697 2662 3845 
Q 2509 3994 2228 3994 
Q 1941 3994 1786 3844 
Q 1631 3694 1631 3419 
z
" transform="scale(0.015625)"/>
     </defs>
     <use xlink:href="#DejaVuSans-Bold-32"/>
     <use xlink:href="#DejaVuSans-Bold-30" transform="translate(69.580078 0)"/>
     <use xlink:href="#DejaVuSans-Bold-37" transform="translate(139.160156 0)"/>
     <use xlink:href="#DejaVuSans-Bold-38" transform="translate(208.740234 0)"/>
    </g>
   </g>
  </g>
 </g>
 <defs>
  <clipPath id="pda88ed382e">
   <rect x="7.2" y="7.2" width="781.2" height="554.4"/>
  </clipPath>
 </defs>
</svg>
